<svg width="187" height="79" viewBox="0 0 187 79" fill="none" xmlns="http://www.w3.org/2000/svg">
<path d="M94 10V38M80 24H108" stroke="#1E1E1E" stroke-width="4" stroke-linecap="round" stroke-linejoin="round"/>
<path d="M5.41406 63.4541H6.75684C6.71387 63.9661 6.57064 64.4227 6.32715 64.8237C6.08366 65.2212 5.7417 65.5345 5.30127 65.7637C4.86084 65.9928 4.32552 66.1074 3.69531 66.1074C3.21191 66.1074 2.77686 66.0215 2.39014 65.8496C2.00342 65.6742 1.6722 65.4271 1.39648 65.1084C1.12077 64.7861 0.909505 64.3976 0.762695 63.9429C0.619466 63.4881 0.547852 62.9797 0.547852 62.4175V61.7676C0.547852 61.2054 0.621257 60.6969 0.768066 60.2422C0.918457 59.7874 1.1333 59.3989 1.4126 59.0767C1.69189 58.7508 2.02669 58.502 2.41699 58.3301C2.81087 58.1582 3.25309 58.0723 3.74365 58.0723C4.3667 58.0723 4.89307 58.1868 5.32275 58.416C5.75244 58.6452 6.08545 58.9621 6.32178 59.3667C6.56169 59.7713 6.7085 60.235 6.76221 60.7578H5.41943C5.38363 60.4212 5.30485 60.133 5.18311 59.8931C5.06494 59.6532 4.88949 59.4705 4.65674 59.3452C4.42399 59.2163 4.11963 59.1519 3.74365 59.1519C3.43571 59.1519 3.16715 59.2091 2.93799 59.3237C2.70882 59.4383 2.51725 59.6066 2.36328 59.8286C2.20931 60.0506 2.09294 60.3245 2.01416 60.6504C1.93896 60.9727 1.90137 61.3415 1.90137 61.7568V62.4175C1.90137 62.8114 1.93538 63.1694 2.00342 63.4917C2.07503 63.8104 2.18245 64.0843 2.32568 64.3135C2.47249 64.5426 2.65869 64.7199 2.88428 64.8452C3.10986 64.9705 3.38021 65.0332 3.69531 65.0332C4.07845 65.0332 4.38818 64.9723 4.62451 64.8506C4.86442 64.7288 5.04525 64.5516 5.16699 64.3188C5.29232 64.0825 5.37467 63.7943 5.41406 63.4541ZM9.65234 61.2949V66H8.35791V60.1885H9.59326L9.65234 61.2949ZM11.4302 60.1509L11.4194 61.354C11.3407 61.3397 11.2547 61.3289 11.1616 61.3218C11.0721 61.3146 10.9826 61.311 10.8931 61.311C10.6711 61.311 10.4759 61.3433 10.3076 61.4077C10.1393 61.4686 9.99788 61.5581 9.8833 61.6763C9.7723 61.7909 9.68636 61.9305 9.62549 62.0952C9.56462 62.2599 9.52881 62.4443 9.51807 62.6484L9.22266 62.6699C9.22266 62.3047 9.25846 61.9663 9.33008 61.6548C9.40169 61.3433 9.50911 61.0693 9.65234 60.833C9.79915 60.5967 9.98177 60.4123 10.2002 60.2798C10.4222 60.1473 10.6782 60.0811 10.9683 60.0811C11.047 60.0811 11.1312 60.0882 11.2207 60.1025C11.3138 60.1169 11.3836 60.133 11.4302 60.1509ZM15.1958 66.1074C14.7661 66.1074 14.3776 66.0376 14.0303 65.8979C13.6865 65.7547 13.3929 65.556 13.1494 65.3018C12.9095 65.0475 12.7251 64.7485 12.5962 64.4048C12.4673 64.061 12.4028 63.6904 12.4028 63.293V63.0781C12.4028 62.6234 12.4691 62.2116 12.6016 61.8428C12.734 61.474 12.9185 61.1589 13.1548 60.8975C13.3911 60.6325 13.6704 60.4302 13.9927 60.2905C14.3149 60.1509 14.6641 60.0811 15.04 60.0811C15.4554 60.0811 15.8188 60.1509 16.1304 60.2905C16.4419 60.4302 16.6997 60.6271 16.9038 60.8813C17.1115 61.132 17.2655 61.431 17.3657 61.7783C17.4696 62.1257 17.5215 62.5088 17.5215 62.9277V63.481H13.0312V62.5518H16.2432V62.4497C16.236 62.217 16.1895 61.9985 16.1035 61.7944C16.0212 61.5903 15.894 61.4256 15.7222 61.3003C15.5503 61.175 15.3211 61.1123 15.0347 61.1123C14.8198 61.1123 14.6283 61.1589 14.46 61.252C14.2952 61.3415 14.1574 61.4722 14.0464 61.644C13.9354 61.8159 13.8494 62.0236 13.7886 62.2671C13.7313 62.507 13.7026 62.7773 13.7026 63.0781V63.293C13.7026 63.5472 13.7367 63.7835 13.8047 64.002C13.8763 64.2168 13.9801 64.4048 14.1162 64.5659C14.2523 64.7271 14.417 64.8542 14.6104 64.9473C14.8037 65.0368 15.0239 65.0815 15.271 65.0815C15.5825 65.0815 15.86 65.0189 16.1035 64.8936C16.347 64.7682 16.5583 64.591 16.7373 64.3618L17.4194 65.0225C17.2941 65.2051 17.1312 65.3805 16.9307 65.5488C16.7301 65.7135 16.4849 65.8478 16.1948 65.9517C15.9084 66.0555 15.5754 66.1074 15.1958 66.1074ZM22.3076 64.8345V62.063C22.3076 61.8553 22.27 61.6763 22.1948 61.5259C22.1196 61.3755 22.005 61.2591 21.8511 61.1768C21.7007 61.0944 21.5109 61.0532 21.2817 61.0532C21.0705 61.0532 20.8879 61.089 20.7339 61.1606C20.5799 61.2323 20.46 61.3289 20.374 61.4507C20.2881 61.5724 20.2451 61.7103 20.2451 61.8643H18.9561C18.9561 61.6351 19.0116 61.4131 19.1226 61.1982C19.2336 60.9834 19.3947 60.7918 19.606 60.6235C19.8172 60.4552 20.0697 60.3228 20.3633 60.2261C20.6569 60.1294 20.9863 60.0811 21.3516 60.0811C21.7884 60.0811 22.1751 60.1545 22.5117 60.3013C22.8519 60.4481 23.1187 60.6701 23.312 60.9673C23.509 61.2609 23.6074 61.6297 23.6074 62.0737V64.6572C23.6074 64.9222 23.6253 65.1603 23.6611 65.3716C23.7005 65.5793 23.756 65.7601 23.8276 65.9141V66H22.501C22.4401 65.8604 22.3918 65.6831 22.356 65.4683C22.3237 65.2498 22.3076 65.0386 22.3076 64.8345ZM22.4956 62.4658L22.5063 63.2661H21.5771C21.3372 63.2661 21.126 63.2894 20.9434 63.3359C20.7607 63.3789 20.6086 63.4434 20.4868 63.5293C20.3651 63.6152 20.2738 63.7191 20.2129 63.8408C20.152 63.9626 20.1216 64.1004 20.1216 64.2544C20.1216 64.4084 20.1574 64.5498 20.229 64.6787C20.3006 64.804 20.4045 64.9025 20.5405 64.9741C20.6802 65.0457 20.8485 65.0815 21.0454 65.0815C21.3104 65.0815 21.5413 65.0278 21.7383 64.9204C21.9388 64.8094 22.0964 64.6751 22.2109 64.5176C22.3255 64.3564 22.3864 64.2043 22.3936 64.061L22.8125 64.6357C22.7695 64.7826 22.6961 64.9401 22.5923 65.1084C22.4884 65.2767 22.3524 65.4378 22.1841 65.5918C22.0194 65.7422 21.8206 65.8657 21.5879 65.9624C21.3587 66.0591 21.0938 66.1074 20.793 66.1074C20.4134 66.1074 20.075 66.0322 19.7778 65.8818C19.4806 65.7279 19.2479 65.522 19.0796 65.2642C18.9113 65.0028 18.8271 64.7074 18.8271 64.3779C18.8271 64.07 18.8844 63.7979 18.999 63.5615C19.1172 63.3216 19.2891 63.1211 19.5146 62.96C19.7438 62.7988 20.0231 62.6771 20.3525 62.5947C20.682 62.5088 21.0579 62.4658 21.4805 62.4658H22.4956ZM26.7607 61.2949V66H25.4663V60.1885H26.7017L26.7607 61.2949ZM28.5386 60.1509L28.5278 61.354C28.4491 61.3397 28.3631 61.3289 28.27 61.3218C28.1805 61.3146 28.091 61.311 28.0015 61.311C27.7795 61.311 27.5843 61.3433 27.416 61.4077C27.2477 61.4686 27.1063 61.5581 26.9917 61.6763C26.8807 61.7909 26.7948 61.9305 26.7339 62.0952C26.673 62.2599 26.6372 62.4443 26.6265 62.6484L26.3311 62.6699C26.3311 62.3047 26.3669 61.9663 26.4385 61.6548C26.5101 61.3433 26.6175 61.0693 26.7607 60.833C26.9076 60.5967 27.0902 60.4123 27.3086 60.2798C27.5306 60.1473 27.7866 60.0811 28.0767 60.0811C28.1554 60.0811 28.2396 60.0882 28.3291 60.1025C28.4222 60.1169 28.492 60.133 28.5386 60.1509ZM34.3887 61.2949V66H33.0942V60.1885H34.3296L34.3887 61.2949ZM36.1665 60.1509L36.1558 61.354C36.077 61.3397 35.991 61.3289 35.8979 61.3218C35.8084 61.3146 35.7189 61.311 35.6294 61.311C35.4074 61.311 35.2122 61.3433 35.0439 61.4077C34.8757 61.4686 34.7342 61.5581 34.6196 61.6763C34.5086 61.7909 34.4227 61.9305 34.3618 62.0952C34.3009 62.2599 34.2651 62.4443 34.2544 62.6484L33.959 62.6699C33.959 62.3047 33.9948 61.9663 34.0664 61.6548C34.138 61.3433 34.2454 61.0693 34.3887 60.833C34.5355 60.5967 34.7181 60.4123 34.9365 60.2798C35.1585 60.1473 35.4146 60.0811 35.7046 60.0811C35.7834 60.0811 35.8675 60.0882 35.957 60.1025C36.0501 60.1169 36.12 60.133 36.1665 60.1509ZM39.9321 66.1074C39.5024 66.1074 39.1139 66.0376 38.7666 65.8979C38.4229 65.7547 38.1292 65.556 37.8857 65.3018C37.6458 65.0475 37.4614 64.7485 37.3325 64.4048C37.2036 64.061 37.1392 63.6904 37.1392 63.293V63.0781C37.1392 62.6234 37.2054 62.2116 37.3379 61.8428C37.4704 61.474 37.6548 61.1589 37.8911 60.8975C38.1274 60.6325 38.4067 60.4302 38.729 60.2905C39.0513 60.1509 39.4004 60.0811 39.7764 60.0811C40.1917 60.0811 40.5552 60.1509 40.8667 60.2905C41.1782 60.4302 41.436 60.6271 41.6401 60.8813C41.8478 61.132 42.0018 61.431 42.1021 61.7783C42.2059 62.1257 42.2578 62.5088 42.2578 62.9277V63.481H37.7676V62.5518H40.9795V62.4497C40.9723 62.217 40.9258 61.9985 40.8398 61.7944C40.7575 61.5903 40.6304 61.4256 40.4585 61.3003C40.2866 61.175 40.0575 61.1123 39.771 61.1123C39.5562 61.1123 39.3646 61.1589 39.1963 61.252C39.0316 61.3415 38.8937 61.4722 38.7827 61.644C38.6717 61.8159 38.5858 62.0236 38.5249 62.2671C38.4676 62.507 38.439 62.7773 38.439 63.0781V63.293C38.439 63.5472 38.473 63.7835 38.541 64.002C38.6126 64.2168 38.7165 64.4048 38.8525 64.5659C38.9886 64.7271 39.1533 64.8542 39.3467 64.9473C39.54 65.0368 39.7603 65.0815 40.0073 65.0815C40.3188 65.0815 40.5964 65.0189 40.8398 64.8936C41.0833 64.7682 41.2946 64.591 41.4736 64.3618L42.1558 65.0225C42.0304 65.2051 41.8675 65.3805 41.667 65.5488C41.4665 65.7135 41.2212 65.8478 40.9312 65.9517C40.6447 66.0555 40.3117 66.1074 39.9321 66.1074ZM45.0674 61.3057V68.2344H43.7729V60.1885H44.9653L45.0674 61.3057ZM48.854 63.0405V63.1533C48.854 63.5758 48.8039 63.9679 48.7036 64.3296C48.6069 64.6877 48.4619 65.001 48.2686 65.2695C48.0788 65.5345 47.8442 65.7404 47.5649 65.8872C47.2856 66.034 46.9634 66.1074 46.5981 66.1074C46.2365 66.1074 45.9196 66.0412 45.6475 65.9087C45.3789 65.7726 45.1515 65.5811 44.9653 65.334C44.7791 65.0869 44.6287 64.7969 44.5142 64.4639C44.4032 64.1273 44.3244 63.7585 44.2778 63.3574V62.9224C44.3244 62.4963 44.4032 62.1095 44.5142 61.7622C44.6287 61.4149 44.7791 61.1159 44.9653 60.8652C45.1515 60.6146 45.3789 60.4212 45.6475 60.2852C45.916 60.1491 46.2293 60.0811 46.5874 60.0811C46.9526 60.0811 47.2767 60.1527 47.5596 60.2959C47.8424 60.4355 48.0806 60.6361 48.2739 60.8975C48.4673 61.1553 48.6123 61.4668 48.709 61.832C48.8057 62.1937 48.854 62.5965 48.854 63.0405ZM47.5596 63.1533V63.0405C47.5596 62.772 47.5345 62.5231 47.4844 62.2939C47.4342 62.0612 47.3555 61.8571 47.248 61.6816C47.1406 61.5062 47.0028 61.3701 46.8345 61.2734C46.6698 61.1732 46.471 61.123 46.2383 61.123C46.0091 61.123 45.8122 61.1624 45.6475 61.2412C45.4827 61.3164 45.3449 61.422 45.2339 61.5581C45.1229 61.6942 45.0369 61.8535 44.9761 62.0361C44.9152 62.2152 44.8722 62.4103 44.8472 62.6216V63.6636C44.8901 63.9214 44.9635 64.1577 45.0674 64.3726C45.1712 64.5874 45.318 64.7593 45.5078 64.8882C45.7012 65.0135 45.9482 65.0762 46.249 65.0762C46.4818 65.0762 46.6805 65.026 46.8452 64.9258C47.0099 64.8255 47.1442 64.6877 47.248 64.5122C47.3555 64.3332 47.4342 64.1273 47.4844 63.8945C47.5345 63.6618 47.5596 63.4147 47.5596 63.1533ZM50.208 63.1587V63.0352C50.208 62.6162 50.2689 62.2277 50.3906 61.8696C50.5124 61.508 50.6878 61.1947 50.917 60.9297C51.1497 60.6611 51.4326 60.4535 51.7656 60.3066C52.1022 60.1562 52.4818 60.0811 52.9043 60.0811C53.3304 60.0811 53.71 60.1562 54.043 60.3066C54.3796 60.4535 54.6642 60.6611 54.897 60.9297C55.1297 61.1947 55.307 61.508 55.4287 61.8696C55.5505 62.2277 55.6113 62.6162 55.6113 63.0352V63.1587C55.6113 63.5776 55.5505 63.9661 55.4287 64.3242C55.307 64.6823 55.1297 64.9956 54.897 65.2642C54.6642 65.5291 54.3813 65.7368 54.0483 65.8872C53.7153 66.034 53.3376 66.1074 52.915 66.1074C52.4889 66.1074 52.1076 66.034 51.771 65.8872C51.438 65.7368 51.1551 65.5291 50.9224 65.2642C50.6896 64.9956 50.5124 64.6823 50.3906 64.3242C50.2689 63.9661 50.208 63.5776 50.208 63.1587ZM51.5024 63.0352V63.1587C51.5024 63.4201 51.5293 63.6672 51.583 63.8999C51.6367 64.1326 51.7209 64.3368 51.8354 64.5122C51.95 64.6877 52.0968 64.8255 52.2759 64.9258C52.4549 65.026 52.668 65.0762 52.915 65.0762C53.1549 65.0762 53.3626 65.026 53.5381 64.9258C53.7171 64.8255 53.8639 64.6877 53.9785 64.5122C54.0931 64.3368 54.1772 64.1326 54.231 63.8999C54.2882 63.6672 54.3169 63.4201 54.3169 63.1587V63.0352C54.3169 62.7773 54.2882 62.5339 54.231 62.3047C54.1772 62.0719 54.0913 61.866 53.9731 61.687C53.8586 61.508 53.7118 61.3683 53.5327 61.2681C53.3573 61.1642 53.1478 61.1123 52.9043 61.1123C52.6608 61.1123 52.4495 61.1642 52.2705 61.2681C52.0951 61.3683 51.95 61.508 51.8354 61.687C51.7209 61.866 51.6367 62.0719 51.583 62.3047C51.5293 62.5339 51.5024 62.7773 51.5024 63.0352ZM58.4961 61.2949V66H57.2017V60.1885H58.437L58.4961 61.2949ZM60.2739 60.1509L60.2632 61.354C60.1844 61.3397 60.0985 61.3289 60.0054 61.3218C59.9159 61.3146 59.8263 61.311 59.7368 61.311C59.5148 61.311 59.3197 61.3433 59.1514 61.4077C58.9831 61.4686 58.8416 61.5581 58.7271 61.6763C58.616 61.7909 58.5301 61.9305 58.4692 62.0952C58.4084 62.2599 58.3726 62.4443 58.3618 62.6484L58.0664 62.6699C58.0664 62.3047 58.1022 61.9663 58.1738 61.6548C58.2454 61.3433 58.3529 61.0693 58.4961 60.833C58.6429 60.5967 58.8255 60.4123 59.0439 60.2798C59.266 60.1473 59.522 60.0811 59.812 60.0811C59.8908 60.0811 59.9749 60.0882 60.0645 60.1025C60.1576 60.1169 60.2274 60.133 60.2739 60.1509ZM64.5176 60.1885V61.1338H61.2412V60.1885H64.5176ZM62.1865 58.7651H63.481V64.394C63.481 64.5731 63.506 64.7109 63.5562 64.8076C63.6099 64.9007 63.6833 64.9634 63.7764 64.9956C63.8695 65.0278 63.9787 65.0439 64.104 65.0439C64.1935 65.0439 64.2795 65.0386 64.3618 65.0278C64.4442 65.0171 64.5104 65.0063 64.5605 64.9956L64.5659 65.9839C64.4585 66.0161 64.3332 66.0448 64.1899 66.0698C64.0503 66.0949 63.8892 66.1074 63.7065 66.1074C63.4093 66.1074 63.1462 66.0555 62.917 65.9517C62.6878 65.8442 62.5088 65.6706 62.3799 65.4307C62.251 65.1908 62.1865 64.8721 62.1865 64.4746V58.7651ZM68.5786 66.1074C68.1489 66.1074 67.7604 66.0376 67.4131 65.8979C67.0693 65.7547 66.7757 65.556 66.5322 65.3018C66.2923 65.0475 66.1079 64.7485 65.979 64.4048C65.8501 64.061 65.7856 63.6904 65.7856 63.293V63.0781C65.7856 62.6234 65.8519 62.2116 65.9844 61.8428C66.1169 61.474 66.3013 61.1589 66.5376 60.8975C66.7739 60.6325 67.0532 60.4302 67.3755 60.2905C67.6978 60.1509 68.0469 60.0811 68.4229 60.0811C68.8382 60.0811 69.2017 60.1509 69.5132 60.2905C69.8247 60.4302 70.0825 60.6271 70.2866 60.8813C70.4943 61.132 70.6483 61.431 70.7485 61.7783C70.8524 62.1257 70.9043 62.5088 70.9043 62.9277V63.481H66.4141V62.5518H69.626V62.4497C69.6188 62.217 69.5723 61.9985 69.4863 61.7944C69.404 61.5903 69.2769 61.4256 69.105 61.3003C68.9331 61.175 68.7039 61.1123 68.4175 61.1123C68.2026 61.1123 68.0111 61.1589 67.8428 61.252C67.6781 61.3415 67.5402 61.4722 67.4292 61.644C67.3182 61.8159 67.2323 62.0236 67.1714 62.2671C67.1141 62.507 67.0854 62.7773 67.0854 63.0781V63.293C67.0854 63.5472 67.1195 63.7835 67.1875 64.002C67.2591 64.2168 67.363 64.4048 67.499 64.5659C67.6351 64.7271 67.7998 64.8542 67.9932 64.9473C68.1865 65.0368 68.4067 65.0815 68.6538 65.0815C68.9653 65.0815 69.2428 65.0189 69.4863 64.8936C69.7298 64.7682 69.9411 64.591 70.1201 64.3618L70.8022 65.0225C70.6769 65.2051 70.514 65.3805 70.3135 65.5488C70.113 65.7135 69.8677 65.8478 69.5776 65.9517C69.2912 66.0555 68.9582 66.1074 68.5786 66.1074ZM76.9531 61.3057V68.2344H75.6587V60.1885H76.8511L76.9531 61.3057ZM80.7397 63.0405V63.1533C80.7397 63.5758 80.6896 63.9679 80.5894 64.3296C80.4927 64.6877 80.3477 65.001 80.1543 65.2695C79.9645 65.5345 79.73 65.7404 79.4507 65.8872C79.1714 66.034 78.8491 66.1074 78.4839 66.1074C78.1222 66.1074 77.8053 66.0412 77.5332 65.9087C77.2646 65.7726 77.0373 65.5811 76.8511 65.334C76.6649 65.0869 76.5145 64.7969 76.3999 64.4639C76.2889 64.1273 76.2101 63.7585 76.1636 63.3574V62.9224C76.2101 62.4963 76.2889 62.1095 76.3999 61.7622C76.5145 61.4149 76.6649 61.1159 76.8511 60.8652C77.0373 60.6146 77.2646 60.4212 77.5332 60.2852C77.8018 60.1491 78.1151 60.0811 78.4731 60.0811C78.8384 60.0811 79.1624 60.1527 79.4453 60.2959C79.7282 60.4355 79.9663 60.6361 80.1597 60.8975C80.353 61.1553 80.498 61.4668 80.5947 61.832C80.6914 62.1937 80.7397 62.5965 80.7397 63.0405ZM79.4453 63.1533V63.0405C79.4453 62.772 79.4202 62.5231 79.3701 62.2939C79.32 62.0612 79.2412 61.8571 79.1338 61.6816C79.0264 61.5062 78.8885 61.3701 78.7202 61.2734C78.5555 61.1732 78.3568 61.123 78.124 61.123C77.8949 61.123 77.6979 61.1624 77.5332 61.2412C77.3685 61.3164 77.2306 61.422 77.1196 61.5581C77.0086 61.6942 76.9227 61.8535 76.8618 62.0361C76.8009 62.2152 76.758 62.4103 76.7329 62.6216V63.6636C76.7759 63.9214 76.8493 64.1577 76.9531 64.3726C77.057 64.5874 77.2038 64.7593 77.3936 64.8882C77.5869 65.0135 77.834 65.0762 78.1348 65.0762C78.3675 65.0762 78.5662 65.026 78.731 64.9258C78.8957 64.8255 79.0299 64.6877 79.1338 64.5122C79.2412 64.3332 79.32 64.1273 79.3701 63.8945C79.4202 63.6618 79.4453 63.4147 79.4453 63.1533ZM85.6172 64.8345V62.063C85.6172 61.8553 85.5796 61.6763 85.5044 61.5259C85.4292 61.3755 85.3146 61.2591 85.1606 61.1768C85.0103 61.0944 84.8205 61.0532 84.5913 61.0532C84.38 61.0532 84.1974 61.089 84.0435 61.1606C83.8895 61.2323 83.7695 61.3289 83.6836 61.4507C83.5977 61.5724 83.5547 61.7103 83.5547 61.8643H82.2656C82.2656 61.6351 82.3211 61.4131 82.4321 61.1982C82.5431 60.9834 82.7043 60.7918 82.9155 60.6235C83.1268 60.4552 83.3792 60.3228 83.6729 60.2261C83.9665 60.1294 84.2959 60.0811 84.6611 60.0811C85.098 60.0811 85.4847 60.1545 85.8213 60.3013C86.1615 60.4481 86.4282 60.6701 86.6216 60.9673C86.8185 61.2609 86.917 61.6297 86.917 62.0737V64.6572C86.917 64.9222 86.9349 65.1603 86.9707 65.3716C87.0101 65.5793 87.0656 65.7601 87.1372 65.9141V66H85.8105C85.7497 65.8604 85.7013 65.6831 85.6655 65.4683C85.6333 65.2498 85.6172 65.0386 85.6172 64.8345ZM85.8052 62.4658L85.8159 63.2661H84.8867C84.6468 63.2661 84.4355 63.2894 84.2529 63.3359C84.0703 63.3789 83.9181 63.4434 83.7964 63.5293C83.6746 63.6152 83.5833 63.7191 83.5225 63.8408C83.4616 63.9626 83.4312 64.1004 83.4312 64.2544C83.4312 64.4084 83.467 64.5498 83.5386 64.6787C83.6102 64.804 83.714 64.9025 83.8501 64.9741C83.9897 65.0457 84.158 65.0815 84.355 65.0815C84.62 65.0815 84.8509 65.0278 85.0479 64.9204C85.2484 64.8094 85.4059 64.6751 85.5205 64.5176C85.6351 64.3564 85.696 64.2043 85.7031 64.061L86.1221 64.6357C86.0791 64.7826 86.0057 64.9401 85.9019 65.1084C85.798 65.2767 85.6619 65.4378 85.4937 65.5918C85.3289 65.7422 85.1302 65.8657 84.8975 65.9624C84.6683 66.0591 84.4033 66.1074 84.1025 66.1074C83.723 66.1074 83.3846 66.0322 83.0874 65.8818C82.7902 65.7279 82.5575 65.522 82.3892 65.2642C82.2209 65.0028 82.1367 64.7074 82.1367 64.3779C82.1367 64.07 82.194 63.7979 82.3086 63.5615C82.4268 63.3216 82.5986 63.1211 82.8242 62.96C83.0534 62.7988 83.3327 62.6771 83.6621 62.5947C83.9915 62.5088 84.3675 62.4658 84.79 62.4658H85.8052ZM90.0703 61.2949V66H88.7759V60.1885H90.0112L90.0703 61.2949ZM91.8481 60.1509L91.8374 61.354C91.7586 61.3397 91.6727 61.3289 91.5796 61.3218C91.4901 61.3146 91.4006 61.311 91.311 61.311C91.089 61.311 90.8939 61.3433 90.7256 61.4077C90.5573 61.4686 90.4159 61.5581 90.3013 61.6763C90.1903 61.7909 90.1043 61.9305 90.0435 62.0952C89.9826 62.2599 89.9468 62.4443 89.936 62.6484L89.6406 62.6699C89.6406 62.3047 89.6764 61.9663 89.748 61.6548C89.8197 61.3433 89.9271 61.0693 90.0703 60.833C90.2171 60.5967 90.3997 60.4123 90.6182 60.2798C90.8402 60.1473 91.0962 60.0811 91.3862 60.0811C91.465 60.0811 91.5492 60.0882 91.6387 60.1025C91.7318 60.1169 91.8016 60.133 91.8481 60.1509ZM96.2422 64.8345V62.063C96.2422 61.8553 96.2046 61.6763 96.1294 61.5259C96.0542 61.3755 95.9396 61.2591 95.7856 61.1768C95.6353 61.0944 95.4455 61.0532 95.2163 61.0532C95.005 61.0532 94.8224 61.089 94.6685 61.1606C94.5145 61.2323 94.3945 61.3289 94.3086 61.4507C94.2227 61.5724 94.1797 61.7103 94.1797 61.8643H92.8906C92.8906 61.6351 92.9461 61.4131 93.0571 61.1982C93.1681 60.9834 93.3293 60.7918 93.5405 60.6235C93.7518 60.4552 94.0042 60.3228 94.2979 60.2261C94.5915 60.1294 94.9209 60.0811 95.2861 60.0811C95.723 60.0811 96.1097 60.1545 96.4463 60.3013C96.7865 60.4481 97.0532 60.6701 97.2466 60.9673C97.4435 61.2609 97.542 61.6297 97.542 62.0737V64.6572C97.542 64.9222 97.5599 65.1603 97.5957 65.3716C97.6351 65.5793 97.6906 65.7601 97.7622 65.9141V66H96.4355C96.3747 65.8604 96.3263 65.6831 96.2905 65.4683C96.2583 65.2498 96.2422 65.0386 96.2422 64.8345ZM96.4302 62.4658L96.4409 63.2661H95.5117C95.2718 63.2661 95.0605 63.2894 94.8779 63.3359C94.6953 63.3789 94.5431 63.4434 94.4214 63.5293C94.2996 63.6152 94.2083 63.7191 94.1475 63.8408C94.0866 63.9626 94.0562 64.1004 94.0562 64.2544C94.0562 64.4084 94.092 64.5498 94.1636 64.6787C94.2352 64.804 94.339 64.9025 94.4751 64.9741C94.6147 65.0457 94.783 65.0815 94.98 65.0815C95.245 65.0815 95.4759 65.0278 95.6729 64.9204C95.8734 64.8094 96.0309 64.6751 96.1455 64.5176C96.2601 64.3564 96.321 64.2043 96.3281 64.061L96.7471 64.6357C96.7041 64.7826 96.6307 64.9401 96.5269 65.1084C96.423 65.2767 96.2869 65.4378 96.1187 65.5918C95.9539 65.7422 95.7552 65.8657 95.5225 65.9624C95.2933 66.0591 95.0283 66.1074 94.7275 66.1074C94.348 66.1074 94.0096 66.0322 93.7124 65.8818C93.4152 65.7279 93.1825 65.522 93.0142 65.2642C92.8459 65.0028 92.7617 64.7074 92.7617 64.3779C92.7617 64.07 92.819 63.7979 92.9336 63.5615C93.0518 63.3216 93.2236 63.1211 93.4492 62.96C93.6784 62.7988 93.9577 62.6771 94.2871 62.5947C94.6165 62.5088 94.9925 62.4658 95.415 62.4658H96.4302ZM105.197 66.1074C104.767 66.1074 104.379 66.0376 104.031 65.8979C103.688 65.7547 103.394 65.556 103.15 65.3018C102.91 65.0475 102.726 64.7485 102.597 64.4048C102.468 64.061 102.404 63.6904 102.404 63.293V63.0781C102.404 62.6234 102.47 62.2116 102.603 61.8428C102.735 61.474 102.919 61.1589 103.156 60.8975C103.392 60.6325 103.671 60.4302 103.994 60.2905C104.316 60.1509 104.665 60.0811 105.041 60.0811C105.456 60.0811 105.82 60.1509 106.131 60.2905C106.443 60.4302 106.701 60.6271 106.905 60.8813C107.112 61.132 107.266 61.431 107.367 61.7783C107.471 62.1257 107.522 62.5088 107.522 62.9277V63.481H103.032V62.5518H106.244V62.4497C106.237 62.217 106.19 61.9985 106.104 61.7944C106.022 61.5903 105.895 61.4256 105.723 61.3003C105.551 61.175 105.322 61.1123 105.036 61.1123C104.821 61.1123 104.629 61.1589 104.461 61.252C104.296 61.3415 104.158 61.4722 104.047 61.644C103.936 61.8159 103.85 62.0236 103.79 62.2671C103.732 62.507 103.704 62.7773 103.704 63.0781V63.293C103.704 63.5472 103.738 63.7835 103.806 64.002C103.877 64.2168 103.981 64.4048 104.117 64.5659C104.253 64.7271 104.418 64.8542 104.611 64.9473C104.805 65.0368 105.025 65.0815 105.272 65.0815C105.583 65.0815 105.861 65.0189 106.104 64.8936C106.348 64.7682 106.559 64.591 106.738 64.3618L107.42 65.0225C107.295 65.2051 107.132 65.3805 106.932 65.5488C106.731 65.7135 106.486 65.8478 106.196 65.9517C105.909 66.0555 105.576 66.1074 105.197 66.1074ZM112.292 64.4263C112.292 64.2974 112.26 64.181 112.196 64.0771C112.131 63.9697 112.008 63.873 111.825 63.7871C111.646 63.7012 111.381 63.6224 111.03 63.5508C110.722 63.4827 110.439 63.4022 110.182 63.3091C109.927 63.2124 109.709 63.096 109.526 62.96C109.344 62.8239 109.202 62.6628 109.102 62.4766C109.002 62.2904 108.952 62.0755 108.952 61.832C108.952 61.5957 109.004 61.3719 109.107 61.1606C109.211 60.9494 109.36 60.7632 109.553 60.6021C109.747 60.4409 109.981 60.3138 110.257 60.2207C110.536 60.1276 110.848 60.0811 111.191 60.0811C111.678 60.0811 112.096 60.1634 112.443 60.3281C112.794 60.4893 113.062 60.7095 113.249 60.9888C113.435 61.2645 113.528 61.576 113.528 61.9233H112.233C112.233 61.7694 112.194 61.6261 112.115 61.4937C112.04 61.3576 111.925 61.2484 111.771 61.166C111.618 61.0801 111.424 61.0371 111.191 61.0371C110.969 61.0371 110.785 61.0729 110.638 61.1445C110.495 61.2126 110.388 61.3021 110.316 61.4131C110.248 61.5241 110.214 61.6458 110.214 61.7783C110.214 61.875 110.232 61.9627 110.268 62.0415C110.307 62.1167 110.371 62.1865 110.461 62.251C110.55 62.3118 110.672 62.3691 110.826 62.4229C110.984 62.4766 111.181 62.5285 111.417 62.5786C111.861 62.6717 112.242 62.7917 112.561 62.9385C112.883 63.0817 113.13 63.2679 113.302 63.4971C113.474 63.7227 113.56 64.0091 113.56 64.3564C113.56 64.6143 113.505 64.8506 113.394 65.0654C113.286 65.2767 113.129 65.4611 112.921 65.6187C112.713 65.7726 112.464 65.8926 112.174 65.9785C111.888 66.0645 111.566 66.1074 111.208 66.1074C110.681 66.1074 110.235 66.0143 109.87 65.8281C109.505 65.6383 109.227 65.3966 109.038 65.103C108.851 64.8058 108.758 64.4979 108.758 64.1792H110.01C110.024 64.4191 110.09 64.6107 110.208 64.7539C110.33 64.8936 110.481 64.9956 110.66 65.0601C110.842 65.1209 111.03 65.1514 111.224 65.1514C111.456 65.1514 111.652 65.1209 111.809 65.0601C111.967 64.9956 112.087 64.9097 112.169 64.8022C112.251 64.6912 112.292 64.5659 112.292 64.4263ZM117.857 60.1885V61.1338H114.581V60.1885H117.857ZM115.526 58.7651H116.821V64.394C116.821 64.5731 116.846 64.7109 116.896 64.8076C116.95 64.9007 117.023 64.9634 117.116 64.9956C117.209 65.0278 117.319 65.0439 117.444 65.0439C117.533 65.0439 117.619 65.0386 117.702 65.0278C117.784 65.0171 117.85 65.0063 117.9 64.9956L117.906 65.9839C117.798 66.0161 117.673 66.0448 117.53 66.0698C117.39 66.0949 117.229 66.1074 117.046 66.1074C116.749 66.1074 116.486 66.0555 116.257 65.9517C116.028 65.8442 115.849 65.6706 115.72 65.4307C115.591 65.1908 115.526 64.8721 115.526 64.4746V58.7651ZM121.918 66.1074C121.489 66.1074 121.1 66.0376 120.753 65.8979C120.409 65.7547 120.116 65.556 119.872 65.3018C119.632 65.0475 119.448 64.7485 119.319 64.4048C119.19 64.061 119.125 63.6904 119.125 63.293V63.0781C119.125 62.6234 119.192 62.2116 119.324 61.8428C119.457 61.474 119.641 61.1589 119.877 60.8975C120.114 60.6325 120.393 60.4302 120.715 60.2905C121.038 60.1509 121.387 60.0811 121.763 60.0811C122.178 60.0811 122.542 60.1509 122.853 60.2905C123.165 60.4302 123.422 60.6271 123.626 60.8813C123.834 61.132 123.988 61.431 124.088 61.7783C124.192 62.1257 124.244 62.5088 124.244 62.9277V63.481H119.754V62.5518H122.966V62.4497C122.959 62.217 122.912 61.9985 122.826 61.7944C122.744 61.5903 122.617 61.4256 122.445 61.3003C122.273 61.175 122.044 61.1123 121.757 61.1123C121.542 61.1123 121.351 61.1589 121.183 61.252C121.018 61.3415 120.88 61.4722 120.769 61.644C120.658 61.8159 120.572 62.0236 120.511 62.2671C120.454 62.507 120.425 62.7773 120.425 63.0781V63.293C120.425 63.5472 120.459 63.7835 120.527 64.002C120.599 64.2168 120.703 64.4048 120.839 64.5659C120.975 64.7271 121.14 64.8542 121.333 64.9473C121.526 65.0368 121.747 65.0815 121.994 65.0815C122.305 65.0815 122.583 65.0189 122.826 64.8936C123.07 64.7682 123.281 64.591 123.46 64.3618L124.142 65.0225C124.017 65.2051 123.854 65.3805 123.653 65.5488C123.453 65.7135 123.208 65.8478 122.917 65.9517C122.631 66.0555 122.298 66.1074 121.918 66.1074ZM130.293 61.3057V68.2344H128.999V60.1885H130.191L130.293 61.3057ZM134.08 63.0405V63.1533C134.08 63.5758 134.029 63.9679 133.929 64.3296C133.833 64.6877 133.688 65.001 133.494 65.2695C133.304 65.5345 133.07 65.7404 132.791 65.8872C132.511 66.034 132.189 66.1074 131.824 66.1074C131.462 66.1074 131.145 66.0412 130.873 65.9087C130.604 65.7726 130.377 65.5811 130.191 65.334C130.005 65.0869 129.854 64.7969 129.74 64.4639C129.629 64.1273 129.55 63.7585 129.503 63.3574V62.9224C129.55 62.4963 129.629 62.1095 129.74 61.7622C129.854 61.4149 130.005 61.1159 130.191 60.8652C130.377 60.6146 130.604 60.4212 130.873 60.2852C131.142 60.1491 131.455 60.0811 131.813 60.0811C132.178 60.0811 132.502 60.1527 132.785 60.2959C133.068 60.4355 133.306 60.6361 133.5 60.8975C133.693 61.1553 133.838 61.4668 133.935 61.832C134.031 62.1937 134.08 62.5965 134.08 63.0405ZM132.785 63.1533V63.0405C132.785 62.772 132.76 62.5231 132.71 62.2939C132.66 62.0612 132.581 61.8571 132.474 61.6816C132.366 61.5062 132.228 61.3701 132.06 61.2734C131.895 61.1732 131.697 61.123 131.464 61.123C131.235 61.123 131.038 61.1624 130.873 61.2412C130.708 61.3164 130.57 61.422 130.459 61.5581C130.348 61.6942 130.263 61.8535 130.202 62.0361C130.141 62.2152 130.098 62.4103 130.073 62.6216V63.6636C130.116 63.9214 130.189 64.1577 130.293 64.3726C130.397 64.5874 130.544 64.7593 130.733 64.8882C130.927 65.0135 131.174 65.0762 131.475 65.0762C131.707 65.0762 131.906 65.026 132.071 64.9258C132.236 64.8255 132.37 64.6877 132.474 64.5122C132.581 64.3332 132.66 64.1273 132.71 63.8945C132.76 63.6618 132.785 63.4147 132.785 63.1533ZM138.243 66.1074C137.813 66.1074 137.424 66.0376 137.077 65.8979C136.733 65.7547 136.44 65.556 136.196 65.3018C135.956 65.0475 135.772 64.7485 135.643 64.4048C135.514 64.061 135.45 63.6904 135.45 63.293V63.0781C135.45 62.6234 135.516 62.2116 135.648 61.8428C135.781 61.474 135.965 61.1589 136.202 60.8975C136.438 60.6325 136.717 60.4302 137.04 60.2905C137.362 60.1509 137.711 60.0811 138.087 60.0811C138.502 60.0811 138.866 60.1509 139.177 60.2905C139.489 60.4302 139.747 60.6271 139.951 60.8813C140.158 61.132 140.312 61.431 140.413 61.7783C140.516 62.1257 140.568 62.5088 140.568 62.9277V63.481H136.078V62.5518H139.29V62.4497C139.283 62.217 139.236 61.9985 139.15 61.7944C139.068 61.5903 138.941 61.4256 138.769 61.3003C138.597 61.175 138.368 61.1123 138.082 61.1123C137.867 61.1123 137.675 61.1589 137.507 61.252C137.342 61.3415 137.204 61.4722 137.093 61.644C136.982 61.8159 136.896 62.0236 136.835 62.2671C136.778 62.507 136.75 62.7773 136.75 63.0781V63.293C136.75 63.5472 136.784 63.7835 136.852 64.002C136.923 64.2168 137.027 64.4048 137.163 64.5659C137.299 64.7271 137.464 64.8542 137.657 64.9473C137.851 65.0368 138.071 65.0815 138.318 65.0815C138.629 65.0815 138.907 65.0189 139.15 64.8936C139.394 64.7682 139.605 64.591 139.784 64.3618L140.466 65.0225C140.341 65.2051 140.178 65.3805 139.978 65.5488C139.777 65.7135 139.532 65.8478 139.242 65.9517C138.955 66.0555 138.622 66.1074 138.243 66.1074ZM143.378 61.2949V66H142.083V60.1885H143.319L143.378 61.2949ZM145.156 60.1509L145.145 61.354C145.066 61.3397 144.98 61.3289 144.887 61.3218C144.798 61.3146 144.708 61.311 144.619 61.311C144.397 61.311 144.201 61.3433 144.033 61.4077C143.865 61.4686 143.723 61.5581 143.609 61.6763C143.498 61.7909 143.412 61.9305 143.351 62.0952C143.29 62.2599 143.254 62.4443 143.244 62.6484L142.948 62.6699C142.948 62.3047 142.984 61.9663 143.056 61.6548C143.127 61.3433 143.235 61.0693 143.378 60.833C143.525 60.5967 143.707 60.4123 143.926 60.2798C144.148 60.1473 144.404 60.0811 144.694 60.0811C144.773 60.0811 144.857 60.0882 144.946 60.1025C145.039 60.1169 145.109 60.133 145.156 60.1509ZM147.853 60.1885V66H146.553V60.1885H147.853ZM146.467 58.6631C146.467 58.4661 146.531 58.3032 146.66 58.1743C146.793 58.0418 146.975 57.9756 147.208 57.9756C147.437 57.9756 147.618 58.0418 147.75 58.1743C147.883 58.3032 147.949 58.4661 147.949 58.6631C147.949 58.8564 147.883 59.0176 147.75 59.1465C147.618 59.2754 147.437 59.3398 147.208 59.3398C146.975 59.3398 146.793 59.2754 146.66 59.1465C146.531 59.0176 146.467 58.8564 146.467 58.6631ZM149.523 63.1587V63.0352C149.523 62.6162 149.584 62.2277 149.706 61.8696C149.828 61.508 150.003 61.1947 150.232 60.9297C150.465 60.6611 150.748 60.4535 151.081 60.3066C151.418 60.1562 151.797 60.0811 152.22 60.0811C152.646 60.0811 153.025 60.1562 153.358 60.3066C153.695 60.4535 153.98 60.6611 154.212 60.9297C154.445 61.1947 154.622 61.508 154.744 61.8696C154.866 62.2277 154.927 62.6162 154.927 63.0352V63.1587C154.927 63.5776 154.866 63.9661 154.744 64.3242C154.622 64.6823 154.445 64.9956 154.212 65.2642C153.98 65.5291 153.697 65.7368 153.364 65.8872C153.031 66.034 152.653 66.1074 152.23 66.1074C151.804 66.1074 151.423 66.034 151.086 65.8872C150.753 65.7368 150.471 65.5291 150.238 65.2642C150.005 64.9956 149.828 64.6823 149.706 64.3242C149.584 63.9661 149.523 63.5776 149.523 63.1587ZM150.818 63.0352V63.1587C150.818 63.4201 150.845 63.6672 150.898 63.8999C150.952 64.1326 151.036 64.3368 151.151 64.5122C151.265 64.6877 151.412 64.8255 151.591 64.9258C151.77 65.026 151.983 65.0762 152.23 65.0762C152.47 65.0762 152.678 65.026 152.854 64.9258C153.033 64.8255 153.179 64.6877 153.294 64.5122C153.409 64.3368 153.493 64.1326 153.546 63.8999C153.604 63.6672 153.632 63.4201 153.632 63.1587V63.0352C153.632 62.7773 153.604 62.5339 153.546 62.3047C153.493 62.0719 153.407 61.866 153.289 61.687C153.174 61.508 153.027 61.3683 152.848 61.2681C152.673 61.1642 152.463 61.1123 152.22 61.1123C151.976 61.1123 151.765 61.1642 151.586 61.2681C151.41 61.3683 151.265 61.508 151.151 61.687C151.036 61.866 150.952 62.0719 150.898 62.3047C150.845 62.5339 150.818 62.7773 150.818 63.0352ZM160.057 64.7969V57.75H161.356V66H160.18L160.057 64.7969ZM156.275 63.1587V63.0459C156.275 62.6055 156.327 62.2044 156.431 61.8428C156.535 61.4775 156.685 61.1642 156.882 60.9028C157.079 60.6379 157.319 60.4355 157.602 60.2959C157.885 60.1527 158.204 60.0811 158.558 60.0811C158.909 60.0811 159.217 60.1491 159.482 60.2852C159.747 60.4212 159.972 60.6164 160.159 60.8706C160.345 61.1213 160.493 61.422 160.604 61.7729C160.715 62.1203 160.794 62.507 160.841 62.9331V63.293C160.794 63.7083 160.715 64.0879 160.604 64.4316C160.493 64.7754 160.345 65.0726 160.159 65.3232C159.972 65.5739 159.745 65.7673 159.477 65.9033C159.212 66.0394 158.902 66.1074 158.547 66.1074C158.196 66.1074 157.88 66.034 157.597 65.8872C157.317 65.7404 157.079 65.5345 156.882 65.2695C156.685 65.0046 156.535 64.693 156.431 64.335C156.327 63.9733 156.275 63.5812 156.275 63.1587ZM157.57 63.0459V63.1587C157.57 63.4237 157.593 63.6707 157.64 63.8999C157.69 64.1291 157.767 64.3314 157.871 64.5068C157.974 64.6787 158.109 64.8148 158.273 64.915C158.442 65.0117 158.642 65.0601 158.875 65.0601C159.169 65.0601 159.41 64.9956 159.6 64.8667C159.79 64.7378 159.938 64.5641 160.046 64.3457C160.157 64.1237 160.232 63.8766 160.271 63.6045V62.6323C160.25 62.4211 160.205 62.2241 160.137 62.0415C160.073 61.8589 159.985 61.6995 159.874 61.5635C159.763 61.4238 159.625 61.3164 159.46 61.2412C159.299 61.1624 159.108 61.123 158.886 61.123C158.649 61.123 158.449 61.1732 158.284 61.2734C158.119 61.3737 157.983 61.5116 157.876 61.687C157.772 61.8625 157.695 62.0666 157.645 62.2993C157.595 62.5321 157.57 62.7809 157.57 63.0459ZM162.963 63.1587V63.0352C162.963 62.6162 163.024 62.2277 163.146 61.8696C163.267 61.508 163.443 61.1947 163.672 60.9297C163.905 60.6611 164.188 60.4535 164.521 60.3066C164.857 60.1562 165.237 60.0811 165.659 60.0811C166.085 60.0811 166.465 60.1562 166.798 60.3066C167.134 60.4535 167.419 60.6611 167.652 60.9297C167.885 61.1947 168.062 61.508 168.184 61.8696C168.305 62.2277 168.366 62.6162 168.366 63.0352V63.1587C168.366 63.5776 168.305 63.9661 168.184 64.3242C168.062 64.6823 167.885 64.9956 167.652 65.2642C167.419 65.5291 167.136 65.7368 166.803 65.8872C166.47 66.034 166.092 66.1074 165.67 66.1074C165.244 66.1074 164.862 66.034 164.526 65.8872C164.193 65.7368 163.91 65.5291 163.677 65.2642C163.444 64.9956 163.267 64.6823 163.146 64.3242C163.024 63.9661 162.963 63.5776 162.963 63.1587ZM164.257 63.0352V63.1587C164.257 63.4201 164.284 63.6672 164.338 63.8999C164.392 64.1326 164.476 64.3368 164.59 64.5122C164.705 64.6877 164.852 64.8255 165.031 64.9258C165.21 65.026 165.423 65.0762 165.67 65.0762C165.91 65.0762 166.118 65.026 166.293 64.9258C166.472 64.8255 166.619 64.6877 166.733 64.5122C166.848 64.3368 166.932 64.1326 166.986 63.8999C167.043 63.6672 167.072 63.4201 167.072 63.1587V63.0352C167.072 62.7773 167.043 62.5339 166.986 62.3047C166.932 62.0719 166.846 61.866 166.728 61.687C166.613 61.508 166.467 61.3683 166.288 61.2681C166.112 61.1642 165.903 61.1123 165.659 61.1123C165.416 61.1123 165.204 61.1642 165.025 61.2681C164.85 61.3683 164.705 61.508 164.59 61.687C164.476 61.866 164.392 62.0719 164.338 62.3047C164.284 62.5339 164.257 62.7773 164.257 63.0352Z" fill="black"/>
</svg>
