<svg width="254" height="25" viewBox="0 0 254 25" fill="none" xmlns="http://www.w3.org/2000/svg">
<path d="M1.88636 18H0.409091L4.68182 6.36364H6.13636L10.4091 18H8.93182L5.45455 8.20455H5.36364L1.88636 18ZM2.43182 13.4545H8.38636V14.7045H2.43182V13.4545ZM15.5625 21.4545C14.9148 21.4545 14.358 21.3712 13.892 21.2045C13.4261 21.0417 13.0379 20.8258 12.7273 20.5568C12.4205 20.2917 12.1761 20.0076 11.9943 19.7045L13.0625 18.9545C13.1837 19.1136 13.3371 19.2955 13.5227 19.5C13.7083 19.7083 13.9621 19.8883 14.2841 20.0398C14.6098 20.1951 15.036 20.2727 15.5625 20.2727C16.267 20.2727 16.8485 20.1023 17.3068 19.7614C17.7652 19.4205 17.9943 18.8864 17.9943 18.1591V16.3864H17.8807C17.7822 16.5455 17.642 16.7424 17.4602 16.9773C17.2822 17.2083 17.0246 17.4148 16.6875 17.5966C16.3542 17.7746 15.9034 17.8636 15.3352 17.8636C14.6307 17.8636 13.9981 17.697 13.4375 17.3636C12.8807 17.0303 12.4394 16.5455 12.1136 15.9091C11.7917 15.2727 11.6307 14.5 11.6307 13.5909C11.6307 12.697 11.7879 11.9186 12.1023 11.2557C12.4167 10.589 12.8542 10.0739 13.4148 9.71023C13.9754 9.3428 14.6231 9.15909 15.358 9.15909C15.9261 9.15909 16.3769 9.25379 16.7102 9.44318C17.0473 9.62879 17.3049 9.84091 17.483 10.0795C17.6648 10.3144 17.8049 10.5076 17.9034 10.6591H18.0398V9.27273H19.3352V18.25C19.3352 19 19.1648 19.6098 18.8239 20.0795C18.4867 20.553 18.0322 20.8996 17.4602 21.1193C16.892 21.3428 16.2595 21.4545 15.5625 21.4545ZM15.517 16.6591C16.0549 16.6591 16.5095 16.536 16.8807 16.2898C17.2519 16.0436 17.5341 15.6894 17.7273 15.2273C17.9205 14.7652 18.017 14.2121 18.017 13.5682C18.017 12.9394 17.9223 12.3845 17.733 11.9034C17.5436 11.4223 17.2633 11.0455 16.892 10.7727C16.5208 10.5 16.0625 10.3636 15.517 10.3636C14.9489 10.3636 14.4754 10.5076 14.0966 10.7955C13.7216 11.0833 13.4394 11.4697 13.25 11.9545C13.0644 12.4394 12.9716 12.9773 12.9716 13.5682C12.9716 14.1742 13.0663 14.7102 13.2557 15.1761C13.4489 15.6383 13.733 16.0019 14.108 16.267C14.4867 16.5284 14.9564 16.6591 15.517 16.6591ZM21.7898 18V9.27273H23.0852V10.5909H23.1761C23.3352 10.1591 23.6231 9.80871 24.0398 9.53977C24.4564 9.27083 24.9261 9.13636 25.4489 9.13636C25.5473 9.13636 25.6705 9.13826 25.8182 9.14205C25.9659 9.14583 26.0777 9.15152 26.1534 9.15909V10.5227C26.108 10.5114 26.0038 10.4943 25.8409 10.4716C25.6818 10.4451 25.5133 10.4318 25.3352 10.4318C24.911 10.4318 24.5322 10.5208 24.1989 10.6989C23.8693 10.8731 23.608 11.1155 23.4148 11.4261C23.2254 11.733 23.1307 12.0833 23.1307 12.4773V18H21.7898ZM31.1364 18.1818C30.2955 18.1818 29.5701 17.9962 28.9602 17.625C28.3542 17.25 27.8864 16.7273 27.5568 16.0568C27.2311 15.3826 27.0682 14.5985 27.0682 13.7045C27.0682 12.8106 27.2311 12.0227 27.5568 11.3409C27.8864 10.6553 28.3447 10.1212 28.9318 9.73864C29.5227 9.35227 30.2121 9.15909 31 9.15909C31.4545 9.15909 31.9034 9.23485 32.3466 9.38636C32.7898 9.53788 33.1932 9.78409 33.5568 10.125C33.9205 10.4621 34.2102 10.9091 34.4261 11.4659C34.642 12.0227 34.75 12.7083 34.75 13.5227V14.0909H28.0227V12.9318H33.3864C33.3864 12.4394 33.2879 12 33.0909 11.6136C32.8977 11.2273 32.6212 10.9223 32.2614 10.6989C31.9053 10.4754 31.4848 10.3636 31 10.3636C30.4659 10.3636 30.0038 10.4962 29.6136 10.7614C29.2273 11.0227 28.9299 11.3636 28.7216 11.7841C28.5133 12.2045 28.4091 12.6553 28.4091 13.1364V13.9091C28.4091 14.5682 28.5227 15.1269 28.75 15.5852C28.9811 16.0398 29.3011 16.3864 29.7102 16.625C30.1193 16.8598 30.5947 16.9773 31.1364 16.9773C31.4886 16.9773 31.8068 16.928 32.0909 16.8295C32.3788 16.7273 32.6269 16.5758 32.8352 16.375C33.0436 16.1705 33.2045 15.9167 33.3182 15.6136L34.6136 15.9773C34.4773 16.4167 34.2481 16.803 33.9261 17.1364C33.6042 17.4659 33.2064 17.7235 32.733 17.9091C32.2595 18.0909 31.7273 18.1818 31.1364 18.1818ZM40.3125 21.4545C39.6648 21.4545 39.108 21.3712 38.642 21.2045C38.1761 21.0417 37.7879 20.8258 37.4773 20.5568C37.1705 20.2917 36.9261 20.0076 36.7443 19.7045L37.8125 18.9545C37.9337 19.1136 38.0871 19.2955 38.2727 19.5C38.4583 19.7083 38.7121 19.8883 39.0341 20.0398C39.3598 20.1951 39.786 20.2727 40.3125 20.2727C41.017 20.2727 41.5985 20.1023 42.0568 19.7614C42.5152 19.4205 42.7443 18.8864 42.7443 18.1591V16.3864H42.6307C42.5322 16.5455 42.392 16.7424 42.2102 16.9773C42.0322 17.2083 41.7746 17.4148 41.4375 17.5966C41.1042 17.7746 40.6534 17.8636 40.0852 17.8636C39.3807 17.8636 38.7481 17.697 38.1875 17.3636C37.6307 17.0303 37.1894 16.5455 36.8636 15.9091C36.5417 15.2727 36.3807 14.5 36.3807 13.5909C36.3807 12.697 36.5379 11.9186 36.8523 11.2557C37.1667 10.589 37.6042 10.0739 38.1648 9.71023C38.7254 9.3428 39.3731 9.15909 40.108 9.15909C40.6761 9.15909 41.1269 9.25379 41.4602 9.44318C41.7973 9.62879 42.0549 9.84091 42.233 10.0795C42.4148 10.3144 42.5549 10.5076 42.6534 10.6591H42.7898V9.27273H44.0852V18.25C44.0852 19 43.9148 19.6098 43.5739 20.0795C43.2367 20.553 42.7822 20.8996 42.2102 21.1193C41.642 21.3428 41.0095 21.4545 40.3125 21.4545ZM40.267 16.6591C40.8049 16.6591 41.2595 16.536 41.6307 16.2898C42.0019 16.0436 42.2841 15.6894 42.4773 15.2273C42.6705 14.7652 42.767 14.2121 42.767 13.5682C42.767 12.9394 42.6723 12.3845 42.483 11.9034C42.2936 11.4223 42.0133 11.0455 41.642 10.7727C41.2708 10.5 40.8125 10.3636 40.267 10.3636C39.6989 10.3636 39.2254 10.5076 38.8466 10.7955C38.4716 11.0833 38.1894 11.4697 38 11.9545C37.8144 12.4394 37.7216 12.9773 37.7216 13.5682C37.7216 14.1742 37.8163 14.7102 38.0057 15.1761C38.1989 15.6383 38.483 16.0019 38.858 16.267C39.2367 16.5284 39.7064 16.6591 40.267 16.6591ZM49.108 18.2045C48.5549 18.2045 48.053 18.1004 47.6023 17.892C47.1515 17.6799 46.7936 17.375 46.5284 16.9773C46.2633 16.5758 46.1307 16.0909 46.1307 15.5227C46.1307 15.0227 46.2292 14.6174 46.4261 14.3068C46.6231 13.9924 46.8864 13.7462 47.2159 13.5682C47.5455 13.3902 47.9091 13.2576 48.3068 13.1705C48.7083 13.0795 49.1117 13.0076 49.517 12.9545C50.0473 12.8864 50.4773 12.8352 50.8068 12.8011C51.1402 12.7633 51.3826 12.7008 51.5341 12.6136C51.6894 12.5265 51.767 12.375 51.767 12.1591V12.1136C51.767 11.553 51.6136 11.1174 51.3068 10.8068C51.0038 10.4962 50.5436 10.3409 49.9261 10.3409C49.286 10.3409 48.7841 10.4811 48.4205 10.7614C48.0568 11.0417 47.8011 11.3409 47.6534 11.6591L46.3807 11.2045C46.608 10.6742 46.911 10.2614 47.2898 9.96591C47.6723 9.66667 48.089 9.45833 48.5398 9.34091C48.9943 9.2197 49.4413 9.15909 49.8807 9.15909C50.161 9.15909 50.483 9.19318 50.8466 9.26136C51.214 9.32576 51.5682 9.46023 51.9091 9.66477C52.2538 9.86932 52.5398 10.178 52.767 10.5909C52.9943 11.0038 53.108 11.5568 53.108 12.25V18H51.767V16.8182H51.6989C51.608 17.0076 51.4564 17.2102 51.2443 17.4261C51.0322 17.642 50.75 17.8258 50.3977 17.9773C50.0455 18.1288 49.6155 18.2045 49.108 18.2045ZM49.3125 17C49.8428 17 50.2898 16.8958 50.6534 16.6875C51.0208 16.4792 51.2973 16.2102 51.483 15.8807C51.6723 15.5511 51.767 15.2045 51.767 14.8409V13.6136C51.7102 13.6818 51.5852 13.7443 51.392 13.8011C51.2027 13.8542 50.983 13.9015 50.733 13.9432C50.4867 13.9811 50.2462 14.0152 50.0114 14.0455C49.7803 14.072 49.5928 14.0947 49.4489 14.1136C49.1004 14.1591 48.7746 14.233 48.4716 14.3352C48.1723 14.4337 47.9299 14.5833 47.7443 14.7841C47.5625 14.9811 47.4716 15.25 47.4716 15.5909C47.4716 16.0568 47.6439 16.4091 47.9886 16.6477C48.3371 16.8826 48.7784 17 49.3125 17ZM55.5554 18V9.27273H56.8509V10.5909H56.9418C57.1009 10.1591 57.3887 9.80871 57.8054 9.53977C58.2221 9.27083 58.6918 9.13636 59.2145 9.13636C59.313 9.13636 59.4361 9.13826 59.5838 9.14205C59.7315 9.14583 59.8433 9.15152 59.919 9.15909V10.5227C59.8736 10.5114 59.7694 10.4943 59.6065 10.4716C59.4474 10.4451 59.2789 10.4318 59.1009 10.4318C58.6766 10.4318 58.2978 10.5208 57.9645 10.6989C57.6349 10.8731 57.3736 11.1155 57.1804 11.4261C56.991 11.733 56.8963 12.0833 56.8963 12.4773V18H55.5554ZM66.0085 21.2727V9.27273H67.304V10.6591H67.4631C67.5616 10.5076 67.6979 10.3144 67.8722 10.0795C68.0502 9.84091 68.304 9.62879 68.6335 9.44318C68.9669 9.25379 69.4176 9.15909 69.9858 9.15909C70.7206 9.15909 71.3684 9.3428 71.929 9.71023C72.4896 10.0777 72.9271 10.5985 73.2415 11.2727C73.5559 11.947 73.7131 12.7424 73.7131 13.6591C73.7131 14.5833 73.5559 15.3845 73.2415 16.0625C72.9271 16.7367 72.4915 17.2595 71.9347 17.6307C71.3778 17.9981 70.7358 18.1818 70.0085 18.1818C69.4479 18.1818 68.9991 18.089 68.6619 17.9034C68.3248 17.714 68.0653 17.5 67.8835 17.2614C67.7017 17.0189 67.5616 16.8182 67.4631 16.6591H67.3494V21.2727H66.0085ZM67.3267 13.6364C67.3267 14.2955 67.4233 14.8769 67.6165 15.3807C67.8097 15.8807 68.0919 16.2727 68.4631 16.5568C68.8343 16.8371 69.2888 16.9773 69.8267 16.9773C70.3873 16.9773 70.8551 16.8295 71.2301 16.5341C71.6089 16.2348 71.893 15.8333 72.0824 15.3295C72.2756 14.822 72.3722 14.2576 72.3722 13.6364C72.3722 13.0227 72.2775 12.4697 72.0881 11.9773C71.9025 11.4811 71.6203 11.089 71.2415 10.8011C70.8665 10.5095 70.3949 10.3636 69.8267 10.3636C69.2813 10.3636 68.8229 10.5019 68.4517 10.7784C68.0805 11.0511 67.8002 11.4337 67.6108 11.9261C67.4214 12.4148 67.3267 12.9848 67.3267 13.6364ZM75.7585 18V9.27273H77.054V10.5909H77.1449C77.304 10.1591 77.5919 9.80871 78.0085 9.53977C78.4252 9.27083 78.8949 9.13636 79.4176 9.13636C79.5161 9.13636 79.6392 9.13826 79.7869 9.14205C79.9347 9.14583 80.0464 9.15152 80.1222 9.15909V10.5227C80.0767 10.5114 79.9725 10.4943 79.8097 10.4716C79.6506 10.4451 79.482 10.4318 79.304 10.4318C78.8797 10.4318 78.5009 10.5208 78.1676 10.6989C77.8381 10.8731 77.5767 11.1155 77.3835 11.4261C77.1941 11.733 77.0994 12.0833 77.0994 12.4773V18H75.7585ZM84.9915 18.1818C84.2036 18.1818 83.5123 17.9943 82.9176 17.6193C82.3267 17.2443 81.8646 16.7197 81.5312 16.0455C81.2017 15.3712 81.0369 14.5833 81.0369 13.6818C81.0369 12.7727 81.2017 11.9792 81.5312 11.3011C81.8646 10.6231 82.3267 10.0966 82.9176 9.72159C83.5123 9.34659 84.2036 9.15909 84.9915 9.15909C85.7794 9.15909 86.4688 9.34659 87.0597 9.72159C87.6544 10.0966 88.1165 10.6231 88.446 11.3011C88.7794 11.9792 88.946 12.7727 88.946 13.6818C88.946 14.5833 88.7794 15.3712 88.446 16.0455C88.1165 16.7197 87.6544 17.2443 87.0597 17.6193C86.4688 17.9943 85.7794 18.1818 84.9915 18.1818ZM84.9915 16.9773C85.59 16.9773 86.0824 16.8239 86.4688 16.517C86.8551 16.2102 87.1411 15.8068 87.3267 15.3068C87.5123 14.8068 87.6051 14.2652 87.6051 13.6818C87.6051 13.0985 87.5123 12.5549 87.3267 12.0511C87.1411 11.5473 86.8551 11.1402 86.4688 10.8295C86.0824 10.5189 85.59 10.3636 84.9915 10.3636C84.393 10.3636 83.9006 10.5189 83.5142 10.8295C83.1278 11.1402 82.8419 11.5473 82.6562 12.0511C82.4706 12.5549 82.3778 13.0985 82.3778 13.6818C82.3778 14.2652 82.4706 14.8068 82.6562 15.3068C82.8419 15.8068 83.1278 16.2102 83.5142 16.517C83.9006 16.8239 84.393 16.9773 84.9915 16.9773ZM91.1747 18V6.36364H92.5156V10.6591H92.6293C92.7277 10.5076 92.8641 10.3144 93.0384 10.0795C93.2164 9.84091 93.4702 9.62879 93.7997 9.44318C94.133 9.25379 94.5838 9.15909 95.152 9.15909C95.8868 9.15909 96.5346 9.3428 97.0952 9.71023C97.6558 10.0777 98.0933 10.5985 98.4077 11.2727C98.7221 11.947 98.8793 12.7424 98.8793 13.6591C98.8793 14.5833 98.7221 15.3845 98.4077 16.0625C98.0933 16.7367 97.6577 17.2595 97.1009 17.6307C96.544 17.9981 95.902 18.1818 95.1747 18.1818C94.6141 18.1818 94.1652 18.089 93.8281 17.9034C93.491 17.714 93.2315 17.5 93.0497 17.2614C92.8679 17.0189 92.7277 16.8182 92.6293 16.6591H92.4702V18H91.1747ZM92.4929 13.6364C92.4929 14.2955 92.5895 14.8769 92.7827 15.3807C92.9759 15.8807 93.258 16.2727 93.6293 16.5568C94.0005 16.8371 94.455 16.9773 94.9929 16.9773C95.5535 16.9773 96.0213 16.8295 96.3963 16.5341C96.7751 16.2348 97.0592 15.8333 97.2486 15.3295C97.4418 14.822 97.5384 14.2576 97.5384 13.6364C97.5384 13.0227 97.4437 12.4697 97.2543 11.9773C97.0687 11.4811 96.7865 11.089 96.4077 10.8011C96.0327 10.5095 95.5611 10.3636 94.9929 10.3636C94.4474 10.3636 93.9891 10.5019 93.6179 10.7784C93.2467 11.0511 92.9664 11.4337 92.777 11.9261C92.5876 12.4148 92.4929 12.9848 92.4929 13.6364ZM102.271 6.36364V18H100.93V6.36364H102.271ZM108.386 18.1818C107.545 18.1818 106.82 17.9962 106.21 17.625C105.604 17.25 105.136 16.7273 104.807 16.0568C104.481 15.3826 104.318 14.5985 104.318 13.7045C104.318 12.8106 104.481 12.0227 104.807 11.3409C105.136 10.6553 105.595 10.1212 106.182 9.73864C106.773 9.35227 107.462 9.15909 108.25 9.15909C108.705 9.15909 109.153 9.23485 109.597 9.38636C110.04 9.53788 110.443 9.78409 110.807 10.125C111.17 10.4621 111.46 10.9091 111.676 11.4659C111.892 12.0227 112 12.7083 112 13.5227V14.0909H105.273V12.9318H110.636C110.636 12.4394 110.538 12 110.341 11.6136C110.148 11.2273 109.871 10.9223 109.511 10.6989C109.155 10.4754 108.735 10.3636 108.25 10.3636C107.716 10.3636 107.254 10.4962 106.864 10.7614C106.477 11.0227 106.18 11.3636 105.972 11.7841C105.763 12.2045 105.659 12.6553 105.659 13.1364V13.9091C105.659 14.5682 105.773 15.1269 106 15.5852C106.231 16.0398 106.551 16.3864 106.96 16.625C107.369 16.8598 107.845 16.9773 108.386 16.9773C108.739 16.9773 109.057 16.928 109.341 16.8295C109.629 16.7273 109.877 16.5758 110.085 16.375C110.294 16.1705 110.455 15.9167 110.568 15.6136L111.864 15.9773C111.727 16.4167 111.498 16.803 111.176 17.1364C110.854 17.4659 110.456 17.7235 109.983 17.9091C109.509 18.0909 108.977 18.1818 108.386 18.1818ZM114.04 18V9.27273H115.335V10.6364H115.449C115.631 10.1705 115.924 9.80871 116.33 9.55114C116.735 9.28977 117.222 9.15909 117.79 9.15909C118.366 9.15909 118.845 9.28977 119.227 9.55114C119.614 9.80871 119.915 10.1705 120.131 10.6364H120.222C120.445 10.1856 120.78 9.82765 121.227 9.5625C121.674 9.29356 122.21 9.15909 122.835 9.15909C123.616 9.15909 124.254 9.40341 124.75 9.89205C125.246 10.3769 125.494 11.1326 125.494 12.1591V18H124.153V12.1591C124.153 11.5152 123.977 11.0549 123.625 10.7784C123.273 10.5019 122.858 10.3636 122.381 10.3636C121.767 10.3636 121.292 10.5492 120.955 10.9205C120.617 11.2879 120.449 11.7538 120.449 12.3182V18H119.085V12.0227C119.085 11.5265 118.924 11.1269 118.602 10.8239C118.28 10.517 117.866 10.3636 117.358 10.3636C117.009 10.3636 116.684 10.4564 116.381 10.642C116.081 10.8277 115.839 11.0852 115.653 11.4148C115.472 11.7405 115.381 12.1174 115.381 12.5455V18H114.04ZM130.514 18.2045C129.961 18.2045 129.459 18.1004 129.009 17.892C128.558 17.6799 128.2 17.375 127.935 16.9773C127.67 16.5758 127.537 16.0909 127.537 15.5227C127.537 15.0227 127.635 14.6174 127.832 14.3068C128.029 13.9924 128.293 13.7462 128.622 13.5682C128.952 13.3902 129.315 13.2576 129.713 13.1705C130.115 13.0795 130.518 13.0076 130.923 12.9545C131.454 12.8864 131.884 12.8352 132.213 12.8011C132.546 12.7633 132.789 12.7008 132.94 12.6136C133.096 12.5265 133.173 12.375 133.173 12.1591V12.1136C133.173 11.553 133.02 11.1174 132.713 10.8068C132.41 10.4962 131.95 10.3409 131.332 10.3409C130.692 10.3409 130.19 10.4811 129.827 10.7614C129.463 11.0417 129.207 11.3409 129.06 11.6591L127.787 11.2045C128.014 10.6742 128.317 10.2614 128.696 9.96591C129.079 9.66667 129.495 9.45833 129.946 9.34091C130.401 9.2197 130.848 9.15909 131.287 9.15909C131.567 9.15909 131.889 9.19318 132.253 9.26136C132.62 9.32576 132.974 9.46023 133.315 9.66477C133.66 9.86932 133.946 10.178 134.173 10.5909C134.401 11.0038 134.514 11.5568 134.514 12.25V18H133.173V16.8182H133.105C133.014 17.0076 132.863 17.2102 132.651 17.4261C132.438 17.642 132.156 17.8258 131.804 17.9773C131.452 18.1288 131.022 18.2045 130.514 18.2045ZM130.719 17C131.249 17 131.696 16.8958 132.06 16.6875C132.427 16.4792 132.704 16.2102 132.889 15.8807C133.079 15.5511 133.173 15.2045 133.173 14.8409V13.6136C133.116 13.6818 132.991 13.7443 132.798 13.8011C132.609 13.8542 132.389 13.9015 132.139 13.9432C131.893 13.9811 131.652 14.0152 131.418 14.0455C131.187 14.072 130.999 14.0947 130.855 14.1136C130.507 14.1591 130.181 14.233 129.878 14.3352C129.579 14.4337 129.336 14.5833 129.151 14.7841C128.969 14.9811 128.878 15.25 128.878 15.5909C128.878 16.0568 129.05 16.4091 129.395 16.6477C129.743 16.8826 130.185 17 130.719 17ZM144.03 18.2045C143.477 18.2045 142.975 18.1004 142.524 17.892C142.073 17.6799 141.715 17.375 141.45 16.9773C141.185 16.5758 141.053 16.0909 141.053 15.5227C141.053 15.0227 141.151 14.6174 141.348 14.3068C141.545 13.9924 141.808 13.7462 142.138 13.5682C142.467 13.3902 142.831 13.2576 143.229 13.1705C143.63 13.0795 144.034 13.0076 144.439 12.9545C144.969 12.8864 145.399 12.8352 145.729 12.8011C146.062 12.7633 146.304 12.7008 146.456 12.6136C146.611 12.5265 146.689 12.375 146.689 12.1591V12.1136C146.689 11.553 146.536 11.1174 146.229 10.8068C145.926 10.4962 145.465 10.3409 144.848 10.3409C144.208 10.3409 143.706 10.4811 143.342 10.7614C142.979 11.0417 142.723 11.3409 142.575 11.6591L141.303 11.2045C141.53 10.6742 141.833 10.2614 142.212 9.96591C142.594 9.66667 143.011 9.45833 143.462 9.34091C143.916 9.2197 144.363 9.15909 144.803 9.15909C145.083 9.15909 145.405 9.19318 145.768 9.26136C146.136 9.32576 146.49 9.46023 146.831 9.66477C147.176 9.86932 147.462 10.178 147.689 10.5909C147.916 11.0038 148.03 11.5568 148.03 12.25V18H146.689V16.8182H146.621C146.53 17.0076 146.378 17.2102 146.166 17.4261C145.954 17.642 145.672 17.8258 145.32 17.9773C144.967 18.1288 144.537 18.2045 144.03 18.2045ZM144.234 17C144.765 17 145.212 16.8958 145.575 16.6875C145.943 16.4792 146.219 16.2102 146.405 15.8807C146.594 15.5511 146.689 15.2045 146.689 14.8409V13.6136C146.632 13.6818 146.507 13.7443 146.314 13.8011C146.125 13.8542 145.905 13.9015 145.655 13.9432C145.409 13.9811 145.168 14.0152 144.933 14.0455C144.702 14.072 144.515 14.0947 144.371 14.1136C144.022 14.1591 143.696 14.233 143.393 14.3352C143.094 14.4337 142.852 14.5833 142.666 14.7841C142.484 14.9811 142.393 15.25 142.393 15.5909C142.393 16.0568 142.566 16.4091 142.911 16.6477C143.259 16.8826 143.7 17 144.234 17ZM154.023 18.1818C153.205 18.1818 152.5 17.9886 151.909 17.6023C151.318 17.2159 150.864 16.6837 150.545 16.0057C150.227 15.3277 150.068 14.553 150.068 13.6818C150.068 12.7955 150.231 12.0133 150.557 11.3352C150.886 10.6534 151.345 10.1212 151.932 9.73864C152.523 9.35227 153.212 9.15909 154 9.15909C154.614 9.15909 155.167 9.27273 155.659 9.5C156.152 9.72727 156.555 10.0455 156.869 10.4545C157.184 10.8636 157.379 11.3409 157.455 11.8864H156.114C156.011 11.4886 155.784 11.1364 155.432 10.8295C155.083 10.5189 154.614 10.3636 154.023 10.3636C153.5 10.3636 153.042 10.5 152.648 10.7727C152.258 11.0417 151.953 11.4223 151.733 11.9148C151.517 12.4034 151.409 12.9773 151.409 13.6364C151.409 14.3106 151.515 14.8977 151.727 15.3977C151.943 15.8977 152.246 16.286 152.636 16.5625C153.03 16.839 153.492 16.9773 154.023 16.9773C154.371 16.9773 154.688 16.9167 154.972 16.7955C155.256 16.6742 155.496 16.5 155.693 16.2727C155.89 16.0455 156.03 15.7727 156.114 15.4545H157.455C157.379 15.9697 157.191 16.4337 156.892 16.8466C156.597 17.2557 156.205 17.5814 155.716 17.8239C155.231 18.0625 154.667 18.1818 154.023 18.1818ZM161.983 18.2045C161.43 18.2045 160.928 18.1004 160.477 17.892C160.027 17.6799 159.669 17.375 159.403 16.9773C159.138 16.5758 159.006 16.0909 159.006 15.5227C159.006 15.0227 159.104 14.6174 159.301 14.3068C159.498 13.9924 159.761 13.7462 160.091 13.5682C160.42 13.3902 160.784 13.2576 161.182 13.1705C161.583 13.0795 161.987 13.0076 162.392 12.9545C162.922 12.8864 163.352 12.8352 163.682 12.8011C164.015 12.7633 164.258 12.7008 164.409 12.6136C164.564 12.5265 164.642 12.375 164.642 12.1591V12.1136C164.642 11.553 164.489 11.1174 164.182 10.8068C163.879 10.4962 163.419 10.3409 162.801 10.3409C162.161 10.3409 161.659 10.4811 161.295 10.7614C160.932 11.0417 160.676 11.3409 160.528 11.6591L159.256 11.2045C159.483 10.6742 159.786 10.2614 160.165 9.96591C160.547 9.66667 160.964 9.45833 161.415 9.34091C161.869 9.2197 162.316 9.15909 162.756 9.15909C163.036 9.15909 163.358 9.19318 163.722 9.26136C164.089 9.32576 164.443 9.46023 164.784 9.66477C165.129 9.86932 165.415 10.178 165.642 10.5909C165.869 11.0038 165.983 11.5568 165.983 12.25V18H164.642V16.8182H164.574C164.483 17.0076 164.331 17.2102 164.119 17.4261C163.907 17.642 163.625 17.8258 163.273 17.9773C162.92 18.1288 162.491 18.2045 161.983 18.2045ZM162.188 17C162.718 17 163.165 16.8958 163.528 16.6875C163.896 16.4792 164.172 16.2102 164.358 15.8807C164.547 15.5511 164.642 15.2045 164.642 14.8409V13.6136C164.585 13.6818 164.46 13.7443 164.267 13.8011C164.078 13.8542 163.858 13.9015 163.608 13.9432C163.362 13.9811 163.121 14.0152 162.886 14.0455C162.655 14.072 162.468 14.0947 162.324 14.1136C161.975 14.1591 161.65 14.233 161.347 14.3352C161.047 14.4337 160.805 14.5833 160.619 14.7841C160.438 14.9811 160.347 15.25 160.347 15.5909C160.347 16.0568 160.519 16.4091 160.864 16.6477C161.212 16.8826 161.653 17 162.188 17ZM171.726 18.1818C170.999 18.1818 170.357 17.9981 169.8 17.6307C169.243 17.2595 168.807 16.7367 168.493 16.0625C168.179 15.3845 168.021 14.5833 168.021 13.6591C168.021 12.7424 168.179 11.947 168.493 11.2727C168.807 10.5985 169.245 10.0777 169.805 9.71023C170.366 9.3428 171.014 9.15909 171.749 9.15909C172.317 9.15909 172.766 9.25379 173.095 9.44318C173.429 9.62879 173.682 9.84091 173.857 10.0795C174.035 10.3144 174.173 10.5076 174.271 10.6591H174.385V6.36364H175.726V18H174.43V16.6591H174.271C174.173 16.8182 174.033 17.0189 173.851 17.2614C173.669 17.5 173.41 17.714 173.072 17.9034C172.735 18.089 172.286 18.1818 171.726 18.1818ZM171.908 16.9773C172.446 16.9773 172.9 16.8371 173.271 16.5568C173.643 16.2727 173.925 15.8807 174.118 15.3807C174.311 14.8769 174.408 14.2955 174.408 13.6364C174.408 12.9848 174.313 12.4148 174.124 11.9261C173.934 11.4337 173.654 11.0511 173.283 10.7784C172.911 10.5019 172.453 10.3636 171.908 10.3636C171.339 10.3636 170.866 10.5095 170.487 10.8011C170.112 11.089 169.83 11.4811 169.641 11.9773C169.455 12.4697 169.362 13.0227 169.362 13.6364C169.362 14.2576 169.457 14.822 169.646 15.3295C169.839 15.8333 170.124 16.2348 170.499 16.5341C170.877 16.8295 171.347 16.9773 171.908 16.9773ZM182.027 18.1818C181.186 18.1818 180.461 17.9962 179.851 17.625C179.245 17.25 178.777 16.7273 178.447 16.0568C178.122 15.3826 177.959 14.5985 177.959 13.7045C177.959 12.8106 178.122 12.0227 178.447 11.3409C178.777 10.6553 179.235 10.1212 179.822 9.73864C180.413 9.35227 181.103 9.15909 181.891 9.15909C182.345 9.15909 182.794 9.23485 183.237 9.38636C183.68 9.53788 184.084 9.78409 184.447 10.125C184.811 10.4621 185.101 10.9091 185.317 11.4659C185.533 12.0227 185.641 12.7083 185.641 13.5227V14.0909H178.913V12.9318H184.277C184.277 12.4394 184.179 12 183.982 11.6136C183.788 11.2273 183.512 10.9223 183.152 10.6989C182.796 10.4754 182.375 10.3636 181.891 10.3636C181.357 10.3636 180.894 10.4962 180.504 10.7614C180.118 11.0227 179.821 11.3636 179.612 11.7841C179.404 12.2045 179.3 12.6553 179.3 13.1364V13.9091C179.3 14.5682 179.413 15.1269 179.641 15.5852C179.872 16.0398 180.192 16.3864 180.601 16.625C181.01 16.8598 181.485 16.9773 182.027 16.9773C182.379 16.9773 182.697 16.928 182.982 16.8295C183.269 16.7273 183.518 16.5758 183.726 16.375C183.934 16.1705 184.095 15.9167 184.209 15.6136L185.504 15.9773C185.368 16.4167 185.139 16.803 184.817 17.1364C184.495 17.4659 184.097 17.7235 183.624 17.9091C183.15 18.0909 182.618 18.1818 182.027 18.1818ZM187.68 18V9.27273H188.976V10.6364H189.089C189.271 10.1705 189.565 9.80871 189.97 9.55114C190.375 9.28977 190.862 9.15909 191.43 9.15909C192.006 9.15909 192.485 9.28977 192.868 9.55114C193.254 9.80871 193.555 10.1705 193.771 10.6364H193.862C194.086 10.1856 194.421 9.82765 194.868 9.5625C195.315 9.29356 195.851 9.15909 196.476 9.15909C197.256 9.15909 197.894 9.40341 198.391 9.89205C198.887 10.3769 199.135 11.1326 199.135 12.1591V18H197.794V12.1591C197.794 11.5152 197.618 11.0549 197.266 10.7784C196.913 10.5019 196.499 10.3636 196.021 10.3636C195.408 10.3636 194.932 10.5492 194.595 10.9205C194.258 11.2879 194.089 11.7538 194.089 12.3182V18H192.726V12.0227C192.726 11.5265 192.565 11.1269 192.243 10.8239C191.921 10.517 191.506 10.3636 190.999 10.3636C190.65 10.3636 190.324 10.4564 190.021 10.642C189.722 10.8277 189.48 11.0852 189.294 11.4148C189.112 11.7405 189.021 12.1174 189.021 12.5455V18H187.68ZM201.587 18V9.27273H202.928V18H201.587ZM202.268 7.81818C202.007 7.81818 201.782 7.72917 201.592 7.55114C201.407 7.37311 201.314 7.15909 201.314 6.90909C201.314 6.65909 201.407 6.44508 201.592 6.26705C201.782 6.08902 202.007 6 202.268 6C202.53 6 202.753 6.08902 202.939 6.26705C203.128 6.44508 203.223 6.65909 203.223 6.90909C203.223 7.15909 203.128 7.37311 202.939 7.55114C202.753 7.72917 202.53 7.81818 202.268 7.81818ZM208.929 18.1818C208.111 18.1818 207.406 17.9886 206.815 17.6023C206.224 17.2159 205.77 16.6837 205.452 16.0057C205.134 15.3277 204.974 14.553 204.974 13.6818C204.974 12.7955 205.137 12.0133 205.463 11.3352C205.793 10.6534 206.251 10.1212 206.838 9.73864C207.429 9.35227 208.118 9.15909 208.906 9.15909C209.52 9.15909 210.073 9.27273 210.565 9.5C211.058 9.72727 211.461 10.0455 211.776 10.4545C212.09 10.8636 212.285 11.3409 212.361 11.8864H211.02C210.918 11.4886 210.69 11.1364 210.338 10.8295C209.99 10.5189 209.52 10.3636 208.929 10.3636C208.406 10.3636 207.948 10.5 207.554 10.7727C207.164 11.0417 206.859 11.4223 206.639 11.9148C206.423 12.4034 206.315 12.9773 206.315 13.6364C206.315 14.3106 206.421 14.8977 206.634 15.3977C206.849 15.8977 207.152 16.286 207.543 16.5625C207.937 16.839 208.399 16.9773 208.929 16.9773C209.277 16.9773 209.594 16.9167 209.878 16.7955C210.162 16.6742 210.402 16.5 210.599 16.2727C210.796 16.0455 210.937 15.7727 211.02 15.4545H212.361C212.285 15.9697 212.098 16.4337 211.798 16.8466C211.503 17.2557 211.111 17.5814 210.622 17.8239C210.137 18.0625 209.573 18.1818 208.929 18.1818ZM217.866 18.1818C217.079 18.1818 216.387 17.9943 215.793 17.6193C215.202 17.2443 214.74 16.7197 214.406 16.0455C214.077 15.3712 213.912 14.5833 213.912 13.6818C213.912 12.7727 214.077 11.9792 214.406 11.3011C214.74 10.6231 215.202 10.0966 215.793 9.72159C216.387 9.34659 217.079 9.15909 217.866 9.15909C218.654 9.15909 219.344 9.34659 219.935 9.72159C220.529 10.0966 220.991 10.6231 221.321 11.3011C221.654 11.9792 221.821 12.7727 221.821 13.6818C221.821 14.5833 221.654 15.3712 221.321 16.0455C220.991 16.7197 220.529 17.2443 219.935 17.6193C219.344 17.9943 218.654 18.1818 217.866 18.1818ZM217.866 16.9773C218.465 16.9773 218.957 16.8239 219.344 16.517C219.73 16.2102 220.016 15.8068 220.202 15.3068C220.387 14.8068 220.48 14.2652 220.48 13.6818C220.48 13.0985 220.387 12.5549 220.202 12.0511C220.016 11.5473 219.73 11.1402 219.344 10.8295C218.957 10.5189 218.465 10.3636 217.866 10.3636C217.268 10.3636 216.776 10.5189 216.389 10.8295C216.003 11.1402 215.717 11.5473 215.531 12.0511C215.346 12.5549 215.253 13.0985 215.253 13.6818C215.253 14.2652 215.346 14.8068 215.531 15.3068C215.717 15.8068 216.003 16.2102 216.389 16.517C216.776 16.8239 217.268 16.9773 217.866 16.9773Z" fill="black"/>
<path d="M242 8.33325V16.6666M238 12.4999H246M252 12.4999C252 18.2529 247.523 22.9166 242 22.9166C236.477 22.9166 232 18.2529 232 12.4999C232 6.74695 236.477 2.08325 242 2.08325C247.523 2.08325 252 6.74695 252 12.4999Z" stroke="#1E1E1E" stroke-width="1.6" stroke-linecap="round" stroke-linejoin="round"/>
</svg>
