<svg width="93" height="40" viewBox="0 0 93 40" fill="none" xmlns="http://www.w3.org/2000/svg">
<mask id="path-1-inside-1_480_764" fill="white">
<path d="M0.5 8C0.5 3.58172 4.08172 0 8.5 0H85C89.4183 0 93 3.58172 93 8V32C93 36.4183 89.4183 40 85 40H8.5C4.08172 40 0.5 36.4183 0.5 32V8Z"/>
</mask>
<path d="M0.5 8C0.5 3.58172 4.08172 0 8.5 0H85C89.4183 0 93 3.58172 93 8V32C93 36.4183 89.4183 40 85 40H8.5C4.08172 40 0.5 36.4183 0.5 32V8Z" fill="#2C2C2C"/>
<path d="M8.5 1H85V-1H8.5V1ZM92 8V32H94V8H92ZM85 39H8.5V41H85V39ZM1.5 32V8H-0.5V32H1.5ZM8.5 39C4.634 39 1.5 35.866 1.5 32H-0.5C-0.5 36.9706 3.52943 41 8.5 41V39ZM92 32C92 35.866 88.866 39 85 39V41C89.9706 41 94 36.9706 94 32H92ZM85 1C88.866 1 92 4.13401 92 8H94C94 3.02944 89.9706 -1 85 -1V1ZM8.5 -1C3.52944 -1 -0.5 3.02944 -0.5 8H1.5C1.5 4.13401 4.63401 1 8.5 1V-1Z" fill="#2C2C2C" mask="url(#path-1-inside-1_480_764)"/>
<path d="M18.6364 26H17.1591L21.4318 14.3636H22.8864L27.1591 26H25.6818L22.2045 16.2045H22.1136L18.6364 26ZM19.1818 21.4545H25.1364V22.7045H19.1818V21.4545ZM32.3352 26.1818C31.517 26.1818 30.8125 25.9886 30.2216 25.6023C29.6307 25.2159 29.1761 24.6837 28.858 24.0057C28.5398 23.3277 28.3807 22.553 28.3807 21.6818C28.3807 20.7955 28.5436 20.0133 28.8693 19.3352C29.1989 18.6534 29.6572 18.1212 30.2443 17.7386C30.8352 17.3523 31.5246 17.1591 32.3125 17.1591C32.9261 17.1591 33.4792 17.2727 33.9716 17.5C34.464 17.7273 34.8674 18.0455 35.1818 18.4545C35.4962 18.8636 35.6913 19.3409 35.767 19.8864H34.4261C34.3239 19.4886 34.0966 19.1364 33.7443 18.8295C33.3958 18.5189 32.9261 18.3636 32.3352 18.3636C31.8125 18.3636 31.3542 18.5 30.9602 18.7727C30.5701 19.0417 30.2652 19.4223 30.0455 19.9148C29.8295 20.4034 29.7216 20.9773 29.7216 21.6364C29.7216 22.3106 29.8277 22.8977 30.0398 23.3977C30.2557 23.8977 30.5587 24.286 30.9489 24.5625C31.3428 24.839 31.8049 24.9773 32.3352 24.9773C32.6837 24.9773 33 24.9167 33.2841 24.7955C33.5682 24.6742 33.8087 24.5 34.0057 24.2727C34.2027 24.0455 34.3428 23.7727 34.4261 23.4545H35.767C35.6913 23.9697 35.5038 24.4337 35.2045 24.8466C34.9091 25.2557 34.517 25.5814 34.0284 25.8239C33.5436 26.0625 32.9792 26.1818 32.3352 26.1818ZM41.3864 26.1818C40.5455 26.1818 39.8201 25.9962 39.2102 25.625C38.6042 25.25 38.1364 24.7273 37.8068 24.0568C37.4811 23.3826 37.3182 22.5985 37.3182 21.7045C37.3182 20.8106 37.4811 20.0227 37.8068 19.3409C38.1364 18.6553 38.5947 18.1212 39.1818 17.7386C39.7727 17.3523 40.4621 17.1591 41.25 17.1591C41.7045 17.1591 42.1534 17.2348 42.5966 17.3864C43.0398 17.5379 43.4432 17.7841 43.8068 18.125C44.1705 18.4621 44.4602 18.9091 44.6761 19.4659C44.892 20.0227 45 20.7083 45 21.5227V22.0909H38.2727V20.9318H43.6364C43.6364 20.4394 43.5379 20 43.3409 19.6136C43.1477 19.2273 42.8712 18.9223 42.5114 18.6989C42.1553 18.4754 41.7348 18.3636 41.25 18.3636C40.7159 18.3636 40.2538 18.4962 39.8636 18.7614C39.4773 19.0227 39.1799 19.3636 38.9716 19.7841C38.7633 20.2045 38.6591 20.6553 38.6591 21.1364V21.9091C38.6591 22.5682 38.7727 23.1269 39 23.5852C39.2311 24.0398 39.5511 24.3864 39.9602 24.625C40.3693 24.8598 40.8447 24.9773 41.3864 24.9773C41.7386 24.9773 42.0568 24.928 42.3409 24.8295C42.6288 24.7273 42.8769 24.5758 43.0852 24.375C43.2936 24.1705 43.4545 23.9167 43.5682 23.6136L44.8636 23.9773C44.7273 24.4167 44.4981 24.803 44.1761 25.1364C43.8542 25.4659 43.4564 25.7235 42.983 25.9091C42.5095 26.0909 41.9773 26.1818 41.3864 26.1818ZM47.0398 29.2727V17.2727H48.3352V18.6591H48.4943C48.5928 18.5076 48.7292 18.3144 48.9034 18.0795C49.0814 17.8409 49.3352 17.6288 49.6648 17.4432C49.9981 17.2538 50.4489 17.1591 51.017 17.1591C51.7519 17.1591 52.3996 17.3428 52.9602 17.7102C53.5208 18.0777 53.9583 18.5985 54.2727 19.2727C54.5871 19.947 54.7443 20.7424 54.7443 21.6591C54.7443 22.5833 54.5871 23.3845 54.2727 24.0625C53.9583 24.7367 53.5227 25.2595 52.9659 25.6307C52.4091 25.9981 51.767 26.1818 51.0398 26.1818C50.4792 26.1818 50.0303 26.089 49.6932 25.9034C49.3561 25.714 49.0966 25.5 48.9148 25.2614C48.733 25.0189 48.5928 24.8182 48.4943 24.6591H48.3807V29.2727H47.0398ZM48.358 21.6364C48.358 22.2955 48.4545 22.8769 48.6477 23.3807C48.8409 23.8807 49.1231 24.2727 49.4943 24.5568C49.8655 24.8371 50.3201 24.9773 50.858 24.9773C51.4186 24.9773 51.8864 24.8295 52.2614 24.5341C52.6402 24.2348 52.9242 23.8333 53.1136 23.3295C53.3068 22.822 53.4034 22.2576 53.4034 21.6364C53.4034 21.0227 53.3087 20.4697 53.1193 19.9773C52.9337 19.4811 52.6515 19.089 52.2727 18.8011C51.8977 18.5095 51.4261 18.3636 50.858 18.3636C50.3125 18.3636 49.8542 18.5019 49.483 18.7784C49.1117 19.0511 48.8314 19.4337 48.642 19.9261C48.4527 20.4148 48.358 20.9848 48.358 21.6364ZM60.5852 17.2727V18.4091H56.0625V17.2727H60.5852ZM57.3807 15.1818H58.7216V23.5C58.7216 23.8788 58.7765 24.1629 58.8864 24.3523C59 24.5379 59.1439 24.6629 59.3182 24.7273C59.4962 24.7879 59.6837 24.8182 59.8807 24.8182C60.0284 24.8182 60.1496 24.8106 60.2443 24.7955C60.339 24.7765 60.4148 24.7614 60.4716 24.75L60.7443 25.9545C60.6534 25.9886 60.5265 26.0227 60.3636 26.0568C60.2008 26.0947 59.9943 26.1136 59.7443 26.1136C59.3655 26.1136 58.9943 26.0322 58.6307 25.8693C58.2708 25.7064 57.9716 25.4583 57.733 25.125C57.4981 24.7917 57.3807 24.3712 57.3807 23.8636V15.1818ZM65.1705 26.2045C64.6174 26.2045 64.1155 26.1004 63.6648 25.892C63.214 25.6799 62.8561 25.375 62.5909 24.9773C62.3258 24.5758 62.1932 24.0909 62.1932 23.5227C62.1932 23.0227 62.2917 22.6174 62.4886 22.3068C62.6856 21.9924 62.9489 21.7462 63.2784 21.5682C63.608 21.3902 63.9716 21.2576 64.3693 21.1705C64.7708 21.0795 65.1742 21.0076 65.5795 20.9545C66.1098 20.8864 66.5398 20.8352 66.8693 20.8011C67.2027 20.7633 67.4451 20.7008 67.5966 20.6136C67.7519 20.5265 67.8295 20.375 67.8295 20.1591V20.1136C67.8295 19.553 67.6761 19.1174 67.3693 18.8068C67.0663 18.4962 66.6061 18.3409 65.9886 18.3409C65.3485 18.3409 64.8466 18.4811 64.483 18.7614C64.1193 19.0417 63.8636 19.3409 63.7159 19.6591L62.4432 19.2045C62.6705 18.6742 62.9735 18.2614 63.3523 17.9659C63.7348 17.6667 64.1515 17.4583 64.6023 17.3409C65.0568 17.2197 65.5038 17.1591 65.9432 17.1591C66.2235 17.1591 66.5455 17.1932 66.9091 17.2614C67.2765 17.3258 67.6307 17.4602 67.9716 17.6648C68.3163 17.8693 68.6023 18.178 68.8295 18.5909C69.0568 19.0038 69.1705 19.5568 69.1705 20.25V26H67.8295V24.8182H67.7614C67.6705 25.0076 67.5189 25.2102 67.3068 25.4261C67.0947 25.642 66.8125 25.8258 66.4602 25.9773C66.108 26.1288 65.678 26.2045 65.1705 26.2045ZM65.375 25C65.9053 25 66.3523 24.8958 66.7159 24.6875C67.0833 24.4792 67.3598 24.2102 67.5455 23.8807C67.7348 23.5511 67.8295 23.2045 67.8295 22.8409V21.6136C67.7727 21.6818 67.6477 21.7443 67.4545 21.8011C67.2652 21.8542 67.0455 21.9015 66.7955 21.9432C66.5492 21.9811 66.3087 22.0152 66.0739 22.0455C65.8428 22.072 65.6553 22.0947 65.5114 22.1136C65.1629 22.1591 64.8371 22.233 64.5341 22.3352C64.2348 22.4337 63.9924 22.5833 63.8068 22.7841C63.625 22.9811 63.5341 23.25 63.5341 23.5909C63.5341 24.0568 63.7064 24.4091 64.0511 24.6477C64.3996 24.8826 64.8409 25 65.375 25ZM71.6179 26V17.2727H72.9134V18.5909H73.0043C73.1634 18.1591 73.4512 17.8087 73.8679 17.5398C74.2846 17.2708 74.7543 17.1364 75.277 17.1364C75.3755 17.1364 75.4986 17.1383 75.6463 17.142C75.794 17.1458 75.9058 17.1515 75.9815 17.1591V18.5227C75.9361 18.5114 75.8319 18.4943 75.669 18.4716C75.5099 18.4451 75.3414 18.4318 75.1634 18.4318C74.7391 18.4318 74.3603 18.5208 74.027 18.6989C73.6974 18.8731 73.4361 19.1155 73.2429 19.4261C73.0535 19.733 72.9588 20.0833 72.9588 20.4773V26H71.6179Z" fill="#F5F5F5"/>
</svg>
