<svg width="137" height="40" viewBox="0 0 137 40" fill="none" xmlns="http://www.w3.org/2000/svg">
<mask id="path-1-inside-1_480_988" fill="white">
<path d="M0 8C0 3.58172 3.58172 0 8 0H129C133.418 0 137 3.58172 137 8V32C137 36.4183 133.418 40 129 40H8C3.58172 40 0 36.4183 0 32V8Z"/>
</mask>
<path d="M0 8C0 3.58172 3.58172 0 8 0H129C133.418 0 137 3.58172 137 8V32C137 36.4183 133.418 40 129 40H8C3.58172 40 0 36.4183 0 32V8Z" fill="#2C2C2C"/>
<path d="M8 1H129V-1H8V1ZM136 8V32H138V8H136ZM129 39H8V41H129V39ZM1 32V8H-1V32H1ZM8 39C4.134 39 1 35.866 1 32H-1C-1 36.9706 3.02943 41 8 41V39ZM136 32C136 35.866 132.866 39 129 39V41C133.971 41 138 36.9706 138 32H136ZM129 1C132.866 1 136 4.13401 136 8H138C138 3.02944 133.971 -1 129 -1V1ZM8 -1C3.02944 -1 -1 3.02944 -1 8H1C1 4.13401 4.13401 1 8 1V-1Z" fill="#2C2C2C" mask="url(#path-1-inside-1_480_988)"/>
<path d="M28.2727 18H26.8636C26.7803 17.5947 26.6345 17.2386 26.4261 16.9318C26.2216 16.625 25.9716 16.3674 25.6761 16.1591C25.3845 15.947 25.0606 15.7879 24.7045 15.6818C24.3485 15.5758 23.9773 15.5227 23.5909 15.5227C22.8864 15.5227 22.2481 15.7008 21.6761 16.0568C21.108 16.4129 20.6553 16.9375 20.3182 17.6307C19.9848 18.3239 19.8182 19.1742 19.8182 20.1818C19.8182 21.1894 19.9848 22.0398 20.3182 22.733C20.6553 23.4261 21.108 23.9508 21.6761 24.3068C22.2481 24.6629 22.8864 24.8409 23.5909 24.8409C23.9773 24.8409 24.3485 24.7879 24.7045 24.6818C25.0606 24.5758 25.3845 24.4186 25.6761 24.2102C25.9716 23.9981 26.2216 23.7386 26.4261 23.4318C26.6345 23.1212 26.7803 22.7652 26.8636 22.3636H28.2727C28.1667 22.9583 27.9735 23.4905 27.6932 23.9602C27.4129 24.4299 27.0644 24.8295 26.6477 25.1591C26.2311 25.4848 25.7633 25.733 25.2443 25.9034C24.7292 26.0739 24.178 26.1591 23.5909 26.1591C22.5985 26.1591 21.7159 25.9167 20.9432 25.4318C20.1705 24.947 19.5625 24.2576 19.1193 23.3636C18.6761 22.4697 18.4545 21.4091 18.4545 20.1818C18.4545 18.9545 18.6761 17.8939 19.1193 17C19.5625 16.1061 20.1705 15.4167 20.9432 14.9318C21.7159 14.447 22.5985 14.2045 23.5909 14.2045C24.178 14.2045 24.7292 14.2898 25.2443 14.4602C25.7633 14.6307 26.2311 14.8807 26.6477 15.2102C27.0644 15.536 27.4129 15.9337 27.6932 16.4034C27.9735 16.8693 28.1667 17.4015 28.2727 18ZM30.3679 26V17.2727H31.6634V18.5909H31.7543C31.9134 18.1591 32.2012 17.8087 32.6179 17.5398C33.0346 17.2708 33.5043 17.1364 34.027 17.1364C34.1255 17.1364 34.2486 17.1383 34.3963 17.142C34.544 17.1458 34.6558 17.1515 34.7315 17.1591V18.5227C34.6861 18.5114 34.5819 18.4943 34.419 18.4716C34.2599 18.4451 34.0914 18.4318 33.9134 18.4318C33.4891 18.4318 33.1103 18.5208 32.777 18.6989C32.4474 18.8731 32.1861 19.1155 31.9929 19.4261C31.8035 19.733 31.7088 20.0833 31.7088 20.4773V26H30.3679ZM39.7145 26.1818C38.8736 26.1818 38.1482 25.9962 37.5384 25.625C36.9323 25.25 36.4645 24.7273 36.1349 24.0568C35.8092 23.3826 35.6463 22.5985 35.6463 21.7045C35.6463 20.8106 35.8092 20.0227 36.1349 19.3409C36.4645 18.6553 36.9228 18.1212 37.5099 17.7386C38.1009 17.3523 38.7902 17.1591 39.5781 17.1591C40.0327 17.1591 40.4815 17.2348 40.9247 17.3864C41.3679 17.5379 41.7713 17.7841 42.1349 18.125C42.4986 18.4621 42.7884 18.9091 43.0043 19.4659C43.2202 20.0227 43.3281 20.7083 43.3281 21.5227V22.0909H36.6009V20.9318H41.9645C41.9645 20.4394 41.866 20 41.669 19.6136C41.4759 19.2273 41.1993 18.9223 40.8395 18.6989C40.4834 18.4754 40.063 18.3636 39.5781 18.3636C39.044 18.3636 38.5819 18.4962 38.1918 18.7614C37.8054 19.0227 37.508 19.3636 37.2997 19.7841C37.0914 20.2045 36.9872 20.6553 36.9872 21.1364V21.9091C36.9872 22.5682 37.1009 23.1269 37.3281 23.5852C37.5592 24.0398 37.8793 24.3864 38.2884 24.625C38.6974 24.8598 39.1728 24.9773 39.7145 24.9773C40.0668 24.9773 40.3849 24.928 40.669 24.8295C40.9569 24.7273 41.205 24.5758 41.4134 24.375C41.6217 24.1705 41.7827 23.9167 41.8963 23.6136L43.1918 23.9773C43.0554 24.4167 42.8262 24.803 42.5043 25.1364C42.1823 25.4659 41.7846 25.7235 41.3111 25.9091C40.8376 26.0909 40.3054 26.1818 39.7145 26.1818ZM47.9361 26.2045C47.383 26.2045 46.8812 26.1004 46.4304 25.892C45.9796 25.6799 45.6217 25.375 45.3565 24.9773C45.0914 24.5758 44.9588 24.0909 44.9588 23.5227C44.9588 23.0227 45.0573 22.6174 45.2543 22.3068C45.4512 21.9924 45.7145 21.7462 46.044 21.5682C46.3736 21.3902 46.7372 21.2576 47.1349 21.1705C47.5365 21.0795 47.9399 21.0076 48.3452 20.9545C48.8755 20.8864 49.3054 20.8352 49.6349 20.8011C49.9683 20.7633 50.2107 20.7008 50.3622 20.6136C50.5175 20.5265 50.5952 20.375 50.5952 20.1591V20.1136C50.5952 19.553 50.4418 19.1174 50.1349 18.8068C49.8319 18.4962 49.3717 18.3409 48.7543 18.3409C48.1141 18.3409 47.6122 18.4811 47.2486 18.7614C46.8849 19.0417 46.6293 19.3409 46.4815 19.6591L45.2088 19.2045C45.4361 18.6742 45.7391 18.2614 46.1179 17.9659C46.5005 17.6667 46.9171 17.4583 47.3679 17.3409C47.8224 17.2197 48.2694 17.1591 48.7088 17.1591C48.9891 17.1591 49.3111 17.1932 49.6747 17.2614C50.0421 17.3258 50.3963 17.4602 50.7372 17.6648C51.0819 17.8693 51.3679 18.178 51.5952 18.5909C51.8224 19.0038 51.9361 19.5568 51.9361 20.25V26H50.5952V24.8182H50.527C50.4361 25.0076 50.2846 25.2102 50.0724 25.4261C49.8603 25.642 49.5781 25.8258 49.2259 25.9773C48.8736 26.1288 48.4437 26.2045 47.9361 26.2045ZM48.1406 25C48.6709 25 49.1179 24.8958 49.4815 24.6875C49.849 24.4792 50.1255 24.2102 50.3111 23.8807C50.5005 23.5511 50.5952 23.2045 50.5952 22.8409V21.6136C50.5384 21.6818 50.4134 21.7443 50.2202 21.8011C50.0308 21.8542 49.8111 21.9015 49.5611 21.9432C49.3149 21.9811 49.0743 22.0152 48.8395 22.0455C48.6084 22.072 48.4209 22.0947 48.277 22.1136C47.9285 22.1591 47.6027 22.233 47.2997 22.3352C47.0005 22.4337 46.758 22.5833 46.5724 22.7841C46.3906 22.9811 46.2997 23.25 46.2997 23.5909C46.2997 24.0568 46.4721 24.4091 46.8168 24.6477C47.1652 24.8826 47.6065 25 48.1406 25ZM54.3835 26V17.2727H55.679V18.5909H55.7699C55.929 18.1591 56.2169 17.8087 56.6335 17.5398C57.0502 17.2708 57.5199 17.1364 58.0426 17.1364C58.1411 17.1364 58.2642 17.1383 58.4119 17.142C58.5597 17.1458 58.6714 17.1515 58.7472 17.1591V18.5227C58.7017 18.5114 58.5975 18.4943 58.4347 18.4716C58.2756 18.4451 58.107 18.4318 57.929 18.4318C57.5047 18.4318 57.1259 18.5208 56.7926 18.6989C56.4631 18.8731 56.2017 19.1155 56.0085 19.4261C55.8191 19.733 55.7244 20.0833 55.7244 20.4773V26H54.3835ZM64.8366 26V17.2727H66.1321V18.5909H66.223C66.3821 18.1591 66.67 17.8087 67.0866 17.5398C67.5033 17.2708 67.973 17.1364 68.4957 17.1364C68.5942 17.1364 68.7173 17.1383 68.8651 17.142C69.0128 17.1458 69.1245 17.1515 69.2003 17.1591V18.5227C69.1548 18.5114 69.0507 18.4943 68.8878 18.4716C68.7287 18.4451 68.5601 18.4318 68.3821 18.4318C67.9579 18.4318 67.5791 18.5208 67.2457 18.6989C66.9162 18.8731 66.6548 19.1155 66.4616 19.4261C66.2723 19.733 66.1776 20.0833 66.1776 20.4773V26H64.8366ZM74.1832 26.1818C73.3423 26.1818 72.617 25.9962 72.0071 25.625C71.401 25.25 70.9332 24.7273 70.6037 24.0568C70.2779 23.3826 70.1151 22.5985 70.1151 21.7045C70.1151 20.8106 70.2779 20.0227 70.6037 19.3409C70.9332 18.6553 71.3916 18.1212 71.9787 17.7386C72.5696 17.3523 73.259 17.1591 74.0469 17.1591C74.5014 17.1591 74.9503 17.2348 75.3935 17.3864C75.8366 17.5379 76.2401 17.7841 76.6037 18.125C76.9673 18.4621 77.2571 18.9091 77.473 19.4659C77.6889 20.0227 77.7969 20.7083 77.7969 21.5227V22.0909H71.0696V20.9318H76.4332C76.4332 20.4394 76.3348 20 76.1378 19.6136C75.9446 19.2273 75.6681 18.9223 75.3082 18.6989C74.9522 18.4754 74.5317 18.3636 74.0469 18.3636C73.5128 18.3636 73.0507 18.4962 72.6605 18.7614C72.2741 19.0227 71.9768 19.3636 71.7685 19.7841C71.5601 20.2045 71.456 20.6553 71.456 21.1364V21.9091C71.456 22.5682 71.5696 23.1269 71.7969 23.5852C72.0279 24.0398 72.348 24.3864 72.7571 24.625C73.1662 24.8598 73.6416 24.9773 74.1832 24.9773C74.5355 24.9773 74.8537 24.928 75.1378 24.8295C75.4257 24.7273 75.6738 24.5758 75.8821 24.375C76.0904 24.1705 76.2514 23.9167 76.3651 23.6136L77.6605 23.9773C77.5241 24.4167 77.295 24.803 76.973 25.1364C76.651 25.4659 76.2533 25.7235 75.7798 25.9091C75.3063 26.0909 74.7741 26.1818 74.1832 26.1818ZM79.8366 29.2727V17.2727H81.1321V18.6591H81.2912C81.3897 18.5076 81.526 18.3144 81.7003 18.0795C81.8783 17.8409 82.1321 17.6288 82.4616 17.4432C82.795 17.2538 83.2457 17.1591 83.8139 17.1591C84.5488 17.1591 85.1965 17.3428 85.7571 17.7102C86.3177 18.0777 86.7552 18.5985 87.0696 19.2727C87.384 19.947 87.5412 20.7424 87.5412 21.6591C87.5412 22.5833 87.384 23.3845 87.0696 24.0625C86.7552 24.7367 86.3196 25.2595 85.7628 25.6307C85.206 25.9981 84.5639 26.1818 83.8366 26.1818C83.276 26.1818 82.8272 26.089 82.4901 25.9034C82.1529 25.714 81.8935 25.5 81.7116 25.2614C81.5298 25.0189 81.3897 24.8182 81.2912 24.6591H81.1776V29.2727H79.8366ZM81.1548 21.6364C81.1548 22.2955 81.2514 22.8769 81.4446 23.3807C81.6378 23.8807 81.92 24.2727 82.2912 24.5568C82.6624 24.8371 83.117 24.9773 83.6548 24.9773C84.2154 24.9773 84.6832 24.8295 85.0582 24.5341C85.437 24.2348 85.7211 23.8333 85.9105 23.3295C86.1037 22.822 86.2003 22.2576 86.2003 21.6364C86.2003 21.0227 86.1056 20.4697 85.9162 19.9773C85.7306 19.4811 85.4484 19.089 85.0696 18.8011C84.6946 18.5095 84.223 18.3636 83.6548 18.3636C83.1094 18.3636 82.651 18.5019 82.2798 18.7784C81.9086 19.0511 81.6283 19.4337 81.4389 19.9261C81.2495 20.4148 81.1548 20.9848 81.1548 21.6364ZM93.1321 26.1818C92.3442 26.1818 91.6529 25.9943 91.0582 25.6193C90.4673 25.2443 90.0052 24.7197 89.6719 24.0455C89.3423 23.3712 89.1776 22.5833 89.1776 21.6818C89.1776 20.7727 89.3423 19.9792 89.6719 19.3011C90.0052 18.6231 90.4673 18.0966 91.0582 17.7216C91.6529 17.3466 92.3442 17.1591 93.1321 17.1591C93.92 17.1591 94.6094 17.3466 95.2003 17.7216C95.795 18.0966 96.2571 18.6231 96.5866 19.3011C96.92 19.9792 97.0866 20.7727 97.0866 21.6818C97.0866 22.5833 96.92 23.3712 96.5866 24.0455C96.2571 24.7197 95.795 25.2443 95.2003 25.6193C94.6094 25.9943 93.92 26.1818 93.1321 26.1818ZM93.1321 24.9773C93.7306 24.9773 94.223 24.8239 94.6094 24.517C94.9957 24.2102 95.2817 23.8068 95.4673 23.3068C95.6529 22.8068 95.7457 22.2652 95.7457 21.6818C95.7457 21.0985 95.6529 20.5549 95.4673 20.0511C95.2817 19.5473 94.9957 19.1402 94.6094 18.8295C94.223 18.5189 93.7306 18.3636 93.1321 18.3636C92.5336 18.3636 92.0412 18.5189 91.6548 18.8295C91.2685 19.1402 90.9825 19.5473 90.7969 20.0511C90.6113 20.5549 90.5185 21.0985 90.5185 21.6818C90.5185 22.2652 90.6113 22.8068 90.7969 23.3068C90.9825 23.8068 91.2685 24.2102 91.6548 24.517C92.0412 24.8239 92.5336 24.9773 93.1321 24.9773ZM99.1335 26V17.2727H100.429V18.5909H100.52C100.679 18.1591 100.967 17.8087 101.384 17.5398C101.8 17.2708 102.27 17.1364 102.793 17.1364C102.891 17.1364 103.014 17.1383 103.162 17.142C103.31 17.1458 103.421 17.1515 103.497 17.1591V18.5227C103.452 18.5114 103.348 18.4943 103.185 18.4716C103.026 18.4451 102.857 18.4318 102.679 18.4318C102.255 18.4318 101.876 18.5208 101.543 18.6989C101.213 18.8731 100.952 19.1155 100.759 19.4261C100.569 19.733 100.474 20.0833 100.474 20.4773V26H99.1335ZM109.429 17.2727V18.4091H104.906V17.2727H109.429ZM106.224 15.1818H107.565V23.5C107.565 23.8788 107.62 24.1629 107.73 24.3523C107.844 24.5379 107.988 24.6629 108.162 24.7273C108.34 24.7879 108.527 24.8182 108.724 24.8182C108.872 24.8182 108.993 24.8106 109.088 24.7955C109.183 24.7765 109.259 24.7614 109.315 24.75L109.588 25.9545C109.497 25.9886 109.37 26.0227 109.207 26.0568C109.045 26.0947 108.838 26.1136 108.588 26.1136C108.209 26.1136 107.838 26.0322 107.474 25.8693C107.115 25.7064 106.815 25.4583 106.577 25.125C106.342 24.7917 106.224 24.3712 106.224 23.8636V15.1818ZM115.011 26.1818C114.17 26.1818 113.445 25.9962 112.835 25.625C112.229 25.25 111.761 24.7273 111.432 24.0568C111.106 23.3826 110.943 22.5985 110.943 21.7045C110.943 20.8106 111.106 20.0227 111.432 19.3409C111.761 18.6553 112.22 18.1212 112.807 17.7386C113.398 17.3523 114.087 17.1591 114.875 17.1591C115.33 17.1591 115.778 17.2348 116.222 17.3864C116.665 17.5379 117.068 17.7841 117.432 18.125C117.795 18.4621 118.085 18.9091 118.301 19.4659C118.517 20.0227 118.625 20.7083 118.625 21.5227V22.0909H111.898V20.9318H117.261C117.261 20.4394 117.163 20 116.966 19.6136C116.773 19.2273 116.496 18.9223 116.136 18.6989C115.78 18.4754 115.36 18.3636 114.875 18.3636C114.341 18.3636 113.879 18.4962 113.489 18.7614C113.102 19.0227 112.805 19.3636 112.597 19.7841C112.388 20.2045 112.284 20.6553 112.284 21.1364V21.9091C112.284 22.5682 112.398 23.1269 112.625 23.5852C112.856 24.0398 113.176 24.3864 113.585 24.625C113.994 24.8598 114.47 24.9773 115.011 24.9773C115.364 24.9773 115.682 24.928 115.966 24.8295C116.254 24.7273 116.502 24.5758 116.71 24.375C116.919 24.1705 117.08 23.9167 117.193 23.6136L118.489 23.9773C118.352 24.4167 118.123 24.803 117.801 25.1364C117.479 25.4659 117.081 25.7235 116.608 25.9091C116.134 26.0909 115.602 26.1818 115.011 26.1818Z" fill="#F5F5F5"/>
</svg>
