<svg width="137" height="40" viewBox="0 0 137 40" fill="none" xmlns="http://www.w3.org/2000/svg">
<path d="M0 8C0 3.58172 3.58172 0 8 0H129C133.418 0 137 3.58172 137 8V32C137 36.4183 133.418 40 129 40H8C3.58172 40 0 36.4183 0 32V8Z" fill="#F05345"/>
<path d="M45.2727 18H43.8636C43.7803 17.5947 43.6345 17.2386 43.4261 16.9318C43.2216 16.625 42.9716 16.3674 42.6761 16.1591C42.3845 15.947 42.0606 15.7879 41.7045 15.6818C41.3485 15.5758 40.9773 15.5227 40.5909 15.5227C39.8864 15.5227 39.2481 15.7008 38.6761 16.0568C38.108 16.4129 37.6553 16.9375 37.3182 17.6307C36.9848 18.3239 36.8182 19.1742 36.8182 20.1818C36.8182 21.1894 36.9848 22.0398 37.3182 22.733C37.6553 23.4261 38.108 23.9508 38.6761 24.3068C39.2481 24.6629 39.8864 24.8409 40.5909 24.8409C40.9773 24.8409 41.3485 24.7879 41.7045 24.6818C42.0606 24.5758 42.3845 24.4186 42.6761 24.2102C42.9716 23.9981 43.2216 23.7386 43.4261 23.4318C43.6345 23.1212 43.7803 22.7652 43.8636 22.3636H45.2727C45.1667 22.9583 44.9735 23.4905 44.6932 23.9602C44.4129 24.4299 44.0644 24.8295 43.6477 25.1591C43.2311 25.4848 42.7633 25.733 42.2443 25.9034C41.7292 26.0739 41.178 26.1591 40.5909 26.1591C39.5985 26.1591 38.7159 25.9167 37.9432 25.4318C37.1705 24.947 36.5625 24.2576 36.1193 23.3636C35.6761 22.4697 35.4545 21.4091 35.4545 20.1818C35.4545 18.9545 35.6761 17.8939 36.1193 17C36.5625 16.1061 37.1705 15.4167 37.9432 14.9318C38.7159 14.447 39.5985 14.2045 40.5909 14.2045C41.178 14.2045 41.7292 14.2898 42.2443 14.4602C42.7633 14.6307 43.2311 14.8807 43.6477 15.2102C44.0644 15.536 44.4129 15.9337 44.6932 16.4034C44.9735 16.8693 45.1667 17.4015 45.2727 18ZM49.9361 26.2045C49.383 26.2045 48.8812 26.1004 48.4304 25.892C47.9796 25.6799 47.6217 25.375 47.3565 24.9773C47.0914 24.5758 46.9588 24.0909 46.9588 23.5227C46.9588 23.0227 47.0573 22.6174 47.2543 22.3068C47.4512 21.9924 47.7145 21.7462 48.044 21.5682C48.3736 21.3902 48.7372 21.2576 49.1349 21.1705C49.5365 21.0795 49.9399 21.0076 50.3452 20.9545C50.8755 20.8864 51.3054 20.8352 51.6349 20.8011C51.9683 20.7633 52.2107 20.7008 52.3622 20.6136C52.5175 20.5265 52.5952 20.375 52.5952 20.1591V20.1136C52.5952 19.553 52.4418 19.1174 52.1349 18.8068C51.8319 18.4962 51.3717 18.3409 50.7543 18.3409C50.1141 18.3409 49.6122 18.4811 49.2486 18.7614C48.8849 19.0417 48.6293 19.3409 48.4815 19.6591L47.2088 19.2045C47.4361 18.6742 47.7391 18.2614 48.1179 17.9659C48.5005 17.6667 48.9171 17.4583 49.3679 17.3409C49.8224 17.2197 50.2694 17.1591 50.7088 17.1591C50.9891 17.1591 51.3111 17.1932 51.6747 17.2614C52.0421 17.3258 52.3963 17.4602 52.7372 17.6648C53.0819 17.8693 53.3679 18.178 53.5952 18.5909C53.8224 19.0038 53.9361 19.5568 53.9361 20.25V26H52.5952V24.8182H52.527C52.4361 25.0076 52.2846 25.2102 52.0724 25.4261C51.8603 25.642 51.5781 25.8258 51.2259 25.9773C50.8736 26.1288 50.4437 26.2045 49.9361 26.2045ZM50.1406 25C50.6709 25 51.1179 24.8958 51.4815 24.6875C51.849 24.4792 52.1255 24.2102 52.3111 23.8807C52.5005 23.5511 52.5952 23.2045 52.5952 22.8409V21.6136C52.5384 21.6818 52.4134 21.7443 52.2202 21.8011C52.0308 21.8542 51.8111 21.9015 51.5611 21.9432C51.3149 21.9811 51.0743 22.0152 50.8395 22.0455C50.6084 22.072 50.4209 22.0947 50.277 22.1136C49.9285 22.1591 49.6027 22.233 49.2997 22.3352C49.0005 22.4337 48.758 22.5833 48.5724 22.7841C48.3906 22.9811 48.2997 23.25 48.2997 23.5909C48.2997 24.0568 48.4721 24.4091 48.8168 24.6477C49.1652 24.8826 49.6065 25 50.1406 25ZM57.7244 20.75V26H56.3835V17.2727H57.679V18.6364H57.7926C57.9972 18.1932 58.3078 17.8371 58.7244 17.5682C59.1411 17.2955 59.679 17.1591 60.3381 17.1591C60.929 17.1591 61.446 17.2803 61.8892 17.5227C62.3324 17.7614 62.6771 18.125 62.9233 18.6136C63.1695 19.0985 63.2926 19.7121 63.2926 20.4545V26H61.9517V20.5455C61.9517 19.8598 61.7737 19.3258 61.4176 18.9432C61.0616 18.5568 60.5729 18.3636 59.9517 18.3636C59.5237 18.3636 59.1411 18.4564 58.804 18.642C58.4706 18.8277 58.2074 19.0985 58.0142 19.4545C57.821 19.8106 57.7244 20.2424 57.7244 20.75ZM69.2884 26.1818C68.4702 26.1818 67.7656 25.9886 67.1747 25.6023C66.5838 25.2159 66.1293 24.6837 65.8111 24.0057C65.4929 23.3277 65.3338 22.553 65.3338 21.6818C65.3338 20.7955 65.4967 20.0133 65.8224 19.3352C66.152 18.6534 66.6103 18.1212 67.1974 17.7386C67.7884 17.3523 68.4777 17.1591 69.2656 17.1591C69.8793 17.1591 70.4323 17.2727 70.9247 17.5C71.4171 17.7273 71.8205 18.0455 72.1349 18.4545C72.4493 18.8636 72.6444 19.3409 72.7202 19.8864H71.3793C71.277 19.4886 71.0497 19.1364 70.6974 18.8295C70.349 18.5189 69.8793 18.3636 69.2884 18.3636C68.7656 18.3636 68.3073 18.5 67.9134 18.7727C67.5232 19.0417 67.2183 19.4223 66.9986 19.9148C66.7827 20.4034 66.6747 20.9773 66.6747 21.6364C66.6747 22.3106 66.7808 22.8977 66.9929 23.3977C67.2088 23.8977 67.5118 24.286 67.902 24.5625C68.2959 24.839 68.758 24.9773 69.2884 24.9773C69.6368 24.9773 69.9531 24.9167 70.2372 24.7955C70.5213 24.6742 70.7618 24.5 70.9588 24.2727C71.1558 24.0455 71.2959 23.7727 71.3793 23.4545H72.7202C72.6444 23.9697 72.4569 24.4337 72.1577 24.8466C71.8622 25.2557 71.4702 25.5814 70.9815 25.8239C70.4967 26.0625 69.9323 26.1818 69.2884 26.1818ZM78.3395 26.1818C77.4986 26.1818 76.7732 25.9962 76.1634 25.625C75.5573 25.25 75.0895 24.7273 74.7599 24.0568C74.4342 23.3826 74.2713 22.5985 74.2713 21.7045C74.2713 20.8106 74.4342 20.0227 74.7599 19.3409C75.0895 18.6553 75.5478 18.1212 76.1349 17.7386C76.7259 17.3523 77.4152 17.1591 78.2031 17.1591C78.6577 17.1591 79.1065 17.2348 79.5497 17.3864C79.9929 17.5379 80.3963 17.7841 80.7599 18.125C81.1236 18.4621 81.4134 18.9091 81.6293 19.4659C81.8452 20.0227 81.9531 20.7083 81.9531 21.5227V22.0909H75.2259V20.9318H80.5895C80.5895 20.4394 80.491 20 80.294 19.6136C80.1009 19.2273 79.8243 18.9223 79.4645 18.6989C79.1084 18.4754 78.688 18.3636 78.2031 18.3636C77.669 18.3636 77.2069 18.4962 76.8168 18.7614C76.4304 19.0227 76.133 19.3636 75.9247 19.7841C75.7164 20.2045 75.6122 20.6553 75.6122 21.1364V21.9091C75.6122 22.5682 75.7259 23.1269 75.9531 23.5852C76.1842 24.0398 76.5043 24.3864 76.9134 24.625C77.3224 24.8598 77.7978 24.9773 78.3395 24.9773C78.6918 24.9773 79.0099 24.928 79.294 24.8295C79.5819 24.7273 79.83 24.5758 80.0384 24.375C80.2467 24.1705 80.4077 23.9167 80.5213 23.6136L81.8168 23.9773C81.6804 24.4167 81.4512 24.803 81.1293 25.1364C80.8073 25.4659 80.4096 25.7235 79.9361 25.9091C79.4626 26.0909 78.9304 26.1818 78.3395 26.1818ZM85.3338 14.3636V26H83.9929V14.3636H85.3338ZM90.358 26.2045C89.8049 26.2045 89.303 26.1004 88.8523 25.892C88.4015 25.6799 88.0436 25.375 87.7784 24.9773C87.5133 24.5758 87.3807 24.0909 87.3807 23.5227C87.3807 23.0227 87.4792 22.6174 87.6761 22.3068C87.8731 21.9924 88.1364 21.7462 88.4659 21.5682C88.7955 21.3902 89.1591 21.2576 89.5568 21.1705C89.9583 21.0795 90.3617 21.0076 90.767 20.9545C91.2973 20.8864 91.7273 20.8352 92.0568 20.8011C92.3902 20.7633 92.6326 20.7008 92.7841 20.6136C92.9394 20.5265 93.017 20.375 93.017 20.1591V20.1136C93.017 19.553 92.8636 19.1174 92.5568 18.8068C92.2538 18.4962 91.7936 18.3409 91.1761 18.3409C90.536 18.3409 90.0341 18.4811 89.6705 18.7614C89.3068 19.0417 89.0511 19.3409 88.9034 19.6591L87.6307 19.2045C87.858 18.6742 88.161 18.2614 88.5398 17.9659C88.9223 17.6667 89.339 17.4583 89.7898 17.3409C90.2443 17.2197 90.6913 17.1591 91.1307 17.1591C91.411 17.1591 91.733 17.1932 92.0966 17.2614C92.464 17.3258 92.8182 17.4602 93.1591 17.6648C93.5038 17.8693 93.7898 18.178 94.017 18.5909C94.2443 19.0038 94.358 19.5568 94.358 20.25V26H93.017V24.8182H92.9489C92.858 25.0076 92.7064 25.2102 92.4943 25.4261C92.2822 25.642 92 25.8258 91.6477 25.9773C91.2955 26.1288 90.8655 26.2045 90.358 26.2045ZM90.5625 25C91.0928 25 91.5398 24.8958 91.9034 24.6875C92.2708 24.4792 92.5473 24.2102 92.733 23.8807C92.9223 23.5511 93.017 23.2045 93.017 22.8409V21.6136C92.9602 21.6818 92.8352 21.7443 92.642 21.8011C92.4527 21.8542 92.233 21.9015 91.983 21.9432C91.7367 21.9811 91.4962 22.0152 91.2614 22.0455C91.0303 22.072 90.8428 22.0947 90.6989 22.1136C90.3504 22.1591 90.0246 22.233 89.7216 22.3352C89.4223 22.4337 89.1799 22.5833 88.9943 22.7841C88.8125 22.9811 88.7216 23.25 88.7216 23.5909C88.7216 24.0568 88.8939 24.4091 89.2386 24.6477C89.5871 24.8826 90.0284 25 90.5625 25ZM96.8054 26V17.2727H98.1009V18.5909H98.1918C98.3509 18.1591 98.6387 17.8087 99.0554 17.5398C99.4721 17.2708 99.9418 17.1364 100.464 17.1364C100.563 17.1364 100.686 17.1383 100.834 17.142C100.982 17.1458 101.093 17.1515 101.169 17.1591V18.5227C101.124 18.5114 101.019 18.4943 100.857 18.4716C100.697 18.4451 100.529 18.4318 100.351 18.4318C99.9266 18.4318 99.5478 18.5208 99.2145 18.6989C98.8849 18.8731 98.6236 19.1155 98.4304 19.4261C98.241 19.733 98.1463 20.0833 98.1463 20.4773V26H96.8054Z" fill="#F3F3F3"/>
</svg>
