<svg width="93" height="40" viewBox="0 0 93 40" fill="none" xmlns="http://www.w3.org/2000/svg">
<path d="M0 8C0 3.58172 3.58172 0 8 0H84.5C88.9183 0 92.5 3.58172 92.5 8V32C92.5 36.4183 88.9183 40 84.5 40H8C3.58172 40 0 36.4183 0 32V8Z" fill="#F05345"/>
<path d="M23.0227 18H21.6136C21.5303 17.5947 21.3845 17.2386 21.1761 16.9318C20.9716 16.625 20.7216 16.3674 20.4261 16.1591C20.1345 15.947 19.8106 15.7879 19.4545 15.6818C19.0985 15.5758 18.7273 15.5227 18.3409 15.5227C17.6364 15.5227 16.9981 15.7008 16.4261 16.0568C15.858 16.4129 15.4053 16.9375 15.0682 17.6307C14.7348 18.3239 14.5682 19.1742 14.5682 20.1818C14.5682 21.1894 14.7348 22.0398 15.0682 22.733C15.4053 23.4261 15.858 23.9508 16.4261 24.3068C16.9981 24.6629 17.6364 24.8409 18.3409 24.8409C18.7273 24.8409 19.0985 24.7879 19.4545 24.6818C19.8106 24.5758 20.1345 24.4186 20.4261 24.2102C20.7216 23.9981 20.9716 23.7386 21.1761 23.4318C21.3845 23.1212 21.5303 22.7652 21.6136 22.3636H23.0227C22.9167 22.9583 22.7235 23.4905 22.4432 23.9602C22.1629 24.4299 21.8144 24.8295 21.3977 25.1591C20.9811 25.4848 20.5133 25.733 19.9943 25.9034C19.4792 26.0739 18.928 26.1591 18.3409 26.1591C17.3485 26.1591 16.4659 25.9167 15.6932 25.4318C14.9205 24.947 14.3125 24.2576 13.8693 23.3636C13.4261 22.4697 13.2045 21.4091 13.2045 20.1818C13.2045 18.9545 13.4261 17.8939 13.8693 17C14.3125 16.1061 14.9205 15.4167 15.6932 14.9318C16.4659 14.447 17.3485 14.2045 18.3409 14.2045C18.928 14.2045 19.4792 14.2898 19.9943 14.4602C20.5133 14.6307 20.9811 14.8807 21.3977 15.2102C21.8144 15.536 22.1629 15.9337 22.4432 16.4034C22.7235 16.8693 22.9167 17.4015 23.0227 18ZM27.6861 26.2045C27.133 26.2045 26.6312 26.1004 26.1804 25.892C25.7296 25.6799 25.3717 25.375 25.1065 24.9773C24.8414 24.5758 24.7088 24.0909 24.7088 23.5227C24.7088 23.0227 24.8073 22.6174 25.0043 22.3068C25.2012 21.9924 25.4645 21.7462 25.794 21.5682C26.1236 21.3902 26.4872 21.2576 26.8849 21.1705C27.2865 21.0795 27.6899 21.0076 28.0952 20.9545C28.6255 20.8864 29.0554 20.8352 29.3849 20.8011C29.7183 20.7633 29.9607 20.7008 30.1122 20.6136C30.2675 20.5265 30.3452 20.375 30.3452 20.1591V20.1136C30.3452 19.553 30.1918 19.1174 29.8849 18.8068C29.5819 18.4962 29.1217 18.3409 28.5043 18.3409C27.8641 18.3409 27.3622 18.4811 26.9986 18.7614C26.6349 19.0417 26.3793 19.3409 26.2315 19.6591L24.9588 19.2045C25.1861 18.6742 25.4891 18.2614 25.8679 17.9659C26.2505 17.6667 26.6671 17.4583 27.1179 17.3409C27.5724 17.2197 28.0194 17.1591 28.4588 17.1591C28.7391 17.1591 29.0611 17.1932 29.4247 17.2614C29.7921 17.3258 30.1463 17.4602 30.4872 17.6648C30.8319 17.8693 31.1179 18.178 31.3452 18.5909C31.5724 19.0038 31.6861 19.5568 31.6861 20.25V26H30.3452V24.8182H30.277C30.1861 25.0076 30.0346 25.2102 29.8224 25.4261C29.6103 25.642 29.3281 25.8258 28.9759 25.9773C28.6236 26.1288 28.1937 26.2045 27.6861 26.2045ZM27.8906 25C28.4209 25 28.8679 24.8958 29.2315 24.6875C29.599 24.4792 29.8755 24.2102 30.0611 23.8807C30.2505 23.5511 30.3452 23.2045 30.3452 22.8409V21.6136C30.2884 21.6818 30.1634 21.7443 29.9702 21.8011C29.7808 21.8542 29.5611 21.9015 29.3111 21.9432C29.0649 21.9811 28.8243 22.0152 28.5895 22.0455C28.3584 22.072 28.1709 22.0947 28.027 22.1136C27.6785 22.1591 27.3527 22.233 27.0497 22.3352C26.7505 22.4337 26.508 22.5833 26.3224 22.7841C26.1406 22.9811 26.0497 23.25 26.0497 23.5909C26.0497 24.0568 26.2221 24.4091 26.5668 24.6477C26.9152 24.8826 27.3565 25 27.8906 25ZM35.4744 20.75V26H34.1335V17.2727H35.429V18.6364H35.5426C35.7472 18.1932 36.0578 17.8371 36.4744 17.5682C36.8911 17.2955 37.429 17.1591 38.0881 17.1591C38.679 17.1591 39.196 17.2803 39.6392 17.5227C40.0824 17.7614 40.4271 18.125 40.6733 18.6136C40.9195 19.0985 41.0426 19.7121 41.0426 20.4545V26H39.7017V20.5455C39.7017 19.8598 39.5237 19.3258 39.1676 18.9432C38.8116 18.5568 38.3229 18.3636 37.7017 18.3636C37.2737 18.3636 36.8911 18.4564 36.554 18.642C36.2206 18.8277 35.9574 19.0985 35.7642 19.4545C35.571 19.8106 35.4744 20.2424 35.4744 20.75ZM47.0384 26.1818C46.2202 26.1818 45.5156 25.9886 44.9247 25.6023C44.3338 25.2159 43.8793 24.6837 43.5611 24.0057C43.2429 23.3277 43.0838 22.553 43.0838 21.6818C43.0838 20.7955 43.2467 20.0133 43.5724 19.3352C43.902 18.6534 44.3603 18.1212 44.9474 17.7386C45.5384 17.3523 46.2277 17.1591 47.0156 17.1591C47.6293 17.1591 48.1823 17.2727 48.6747 17.5C49.1671 17.7273 49.5705 18.0455 49.8849 18.4545C50.1993 18.8636 50.3944 19.3409 50.4702 19.8864H49.1293C49.027 19.4886 48.7997 19.1364 48.4474 18.8295C48.099 18.5189 47.6293 18.3636 47.0384 18.3636C46.5156 18.3636 46.0573 18.5 45.6634 18.7727C45.2732 19.0417 44.9683 19.4223 44.7486 19.9148C44.5327 20.4034 44.4247 20.9773 44.4247 21.6364C44.4247 22.3106 44.5308 22.8977 44.7429 23.3977C44.9588 23.8977 45.2618 24.286 45.652 24.5625C46.0459 24.839 46.508 24.9773 47.0384 24.9773C47.3868 24.9773 47.7031 24.9167 47.9872 24.7955C48.2713 24.6742 48.5118 24.5 48.7088 24.2727C48.9058 24.0455 49.0459 23.7727 49.1293 23.4545H50.4702C50.3944 23.9697 50.2069 24.4337 49.9077 24.8466C49.6122 25.2557 49.2202 25.5814 48.7315 25.8239C48.2467 26.0625 47.6823 26.1818 47.0384 26.1818ZM56.0895 26.1818C55.2486 26.1818 54.5232 25.9962 53.9134 25.625C53.3073 25.25 52.8395 24.7273 52.5099 24.0568C52.1842 23.3826 52.0213 22.5985 52.0213 21.7045C52.0213 20.8106 52.1842 20.0227 52.5099 19.3409C52.8395 18.6553 53.2978 18.1212 53.8849 17.7386C54.4759 17.3523 55.1652 17.1591 55.9531 17.1591C56.4077 17.1591 56.8565 17.2348 57.2997 17.3864C57.7429 17.5379 58.1463 17.7841 58.5099 18.125C58.8736 18.4621 59.1634 18.9091 59.3793 19.4659C59.5952 20.0227 59.7031 20.7083 59.7031 21.5227V22.0909H52.9759V20.9318H58.3395C58.3395 20.4394 58.241 20 58.044 19.6136C57.8509 19.2273 57.5743 18.9223 57.2145 18.6989C56.8584 18.4754 56.438 18.3636 55.9531 18.3636C55.419 18.3636 54.9569 18.4962 54.5668 18.7614C54.1804 19.0227 53.883 19.3636 53.6747 19.7841C53.4664 20.2045 53.3622 20.6553 53.3622 21.1364V21.9091C53.3622 22.5682 53.4759 23.1269 53.7031 23.5852C53.9342 24.0398 54.2543 24.3864 54.6634 24.625C55.0724 24.8598 55.5478 24.9773 56.0895 24.9773C56.4418 24.9773 56.7599 24.928 57.044 24.8295C57.3319 24.7273 57.58 24.5758 57.7884 24.375C57.9967 24.1705 58.1577 23.9167 58.2713 23.6136L59.5668 23.9773C59.4304 24.4167 59.2012 24.803 58.8793 25.1364C58.5573 25.4659 58.1596 25.7235 57.6861 25.9091C57.2126 26.0909 56.6804 26.1818 56.0895 26.1818ZM63.0838 14.3636V26H61.7429V14.3636H63.0838ZM68.108 26.2045C67.5549 26.2045 67.053 26.1004 66.6023 25.892C66.1515 25.6799 65.7936 25.375 65.5284 24.9773C65.2633 24.5758 65.1307 24.0909 65.1307 23.5227C65.1307 23.0227 65.2292 22.6174 65.4261 22.3068C65.6231 21.9924 65.8864 21.7462 66.2159 21.5682C66.5455 21.3902 66.9091 21.2576 67.3068 21.1705C67.7083 21.0795 68.1117 21.0076 68.517 20.9545C69.0473 20.8864 69.4773 20.8352 69.8068 20.8011C70.1402 20.7633 70.3826 20.7008 70.5341 20.6136C70.6894 20.5265 70.767 20.375 70.767 20.1591V20.1136C70.767 19.553 70.6136 19.1174 70.3068 18.8068C70.0038 18.4962 69.5436 18.3409 68.9261 18.3409C68.286 18.3409 67.7841 18.4811 67.4205 18.7614C67.0568 19.0417 66.8011 19.3409 66.6534 19.6591L65.3807 19.2045C65.608 18.6742 65.911 18.2614 66.2898 17.9659C66.6723 17.6667 67.089 17.4583 67.5398 17.3409C67.9943 17.2197 68.4413 17.1591 68.8807 17.1591C69.161 17.1591 69.483 17.1932 69.8466 17.2614C70.214 17.3258 70.5682 17.4602 70.9091 17.6648C71.2538 17.8693 71.5398 18.178 71.767 18.5909C71.9943 19.0038 72.108 19.5568 72.108 20.25V26H70.767V24.8182H70.6989C70.608 25.0076 70.4564 25.2102 70.2443 25.4261C70.0322 25.642 69.75 25.8258 69.3977 25.9773C69.0455 26.1288 68.6155 26.2045 68.108 26.2045ZM68.3125 25C68.8428 25 69.2898 24.8958 69.6534 24.6875C70.0208 24.4792 70.2973 24.2102 70.483 23.8807C70.6723 23.5511 70.767 23.2045 70.767 22.8409V21.6136C70.7102 21.6818 70.5852 21.7443 70.392 21.8011C70.2027 21.8542 69.983 21.9015 69.733 21.9432C69.4867 21.9811 69.2462 22.0152 69.0114 22.0455C68.7803 22.072 68.5928 22.0947 68.4489 22.1136C68.1004 22.1591 67.7746 22.233 67.4716 22.3352C67.1723 22.4337 66.9299 22.5833 66.7443 22.7841C66.5625 22.9811 66.4716 23.25 66.4716 23.5909C66.4716 24.0568 66.6439 24.4091 66.9886 24.6477C67.3371 24.8826 67.7784 25 68.3125 25ZM74.5554 26V17.2727H75.8509V18.5909H75.9418C76.1009 18.1591 76.3887 17.8087 76.8054 17.5398C77.2221 17.2708 77.6918 17.1364 78.2145 17.1364C78.313 17.1364 78.4361 17.1383 78.5838 17.142C78.7315 17.1458 78.8433 17.1515 78.919 17.1591V18.5227C78.8736 18.5114 78.7694 18.4943 78.6065 18.4716C78.4474 18.4451 78.2789 18.4318 78.1009 18.4318C77.6766 18.4318 77.2978 18.5208 76.9645 18.6989C76.6349 18.8731 76.3736 19.1155 76.1804 19.4261C75.991 19.733 75.8963 20.0833 75.8963 20.4773V26H74.5554Z" fill="#F3F3F3"/>
</svg>
