<svg width="16" height="16" viewBox="0 0 16 16" fill="none" xmlns="http://www.w3.org/2000/svg">
<g clip-path="url(#clip0_415_1257)">
<path d="M7.33325 2.66667H2.66659C2.31296 2.66667 1.97382 2.80715 1.72378 3.05719C1.47373 3.30724 1.33325 3.64638 1.33325 4V13.3333C1.33325 13.687 1.47373 14.0261 1.72378 14.2761C1.97382 14.5262 2.31296 14.6667 2.66659 14.6667H11.9999C12.3535 14.6667 12.6927 14.5262 12.9427 14.2761C13.1928 14.0261 13.3333 13.687 13.3333 13.3333V8.66667M12.3333 1.66667C12.5985 1.40145 12.9582 1.25246 13.3333 1.25246C13.7083 1.25246 14.068 1.40145 14.3333 1.66667C14.5985 1.93189 14.7475 2.2916 14.7475 2.66667C14.7475 3.04174 14.5985 3.40145 14.3333 3.66667L7.99992 10L5.33325 10.6667L5.99992 8L12.3333 1.66667Z" stroke="#1E1E1E" stroke-width="1.6" stroke-linecap="round" stroke-linejoin="round"/>
</g>
<defs>
<clipPath id="clip0_415_1257">
<rect width="16" height="16" fill="white"/>
</clipPath>
</defs>
</svg>
