<svg width="87" height="20" viewBox="0 0 87 20" fill="none" xmlns="http://www.w3.org/2000/svg">
<path d="M0 10C0 4.47715 4.47715 0 10 0H77C82.5228 0 87 4.47715 87 10C87 15.5228 82.5229 20 77 20H10C4.47715 20 0 15.5228 0 10Z" fill="#4CBEEF"/>
<path d="M0 10C0 4.47715 4.47715 0 10 0H77C82.5228 0 87 4.47715 87 10C87 15.5228 82.5229 20 77 20H10C4.47715 20 0 15.5228 0 10Z" fill="#4CBEEF"/>
<path d="M31.7651 12.0835H29.7295V11.0146H31.7651C32.1196 11.0146 32.4061 10.9574 32.6245 10.8428C32.8429 10.7282 33.0023 10.5706 33.1025 10.3701C33.2064 10.166 33.2583 9.93327 33.2583 9.67188C33.2583 9.4248 33.2064 9.19385 33.1025 8.979C33.0023 8.76058 32.8429 8.58512 32.6245 8.45264C32.4061 8.32015 32.1196 8.25391 31.7651 8.25391H30.1431V15H28.7949V7.17969H31.7651C32.3703 7.17969 32.8841 7.28711 33.3066 7.50195C33.7327 7.71322 34.0568 8.00684 34.2788 8.38281C34.5008 8.75521 34.6118 9.18132 34.6118 9.66113C34.6118 10.166 34.5008 10.5993 34.2788 10.9609C34.0568 11.3226 33.7327 11.6001 33.3066 11.7935C32.8841 11.9868 32.3703 12.0835 31.7651 12.0835ZM37.4912 10.2949V15H36.1968V9.18848H37.4321L37.4912 10.2949ZM39.269 9.15088L39.2583 10.354C39.1795 10.3397 39.0936 10.3289 39.0005 10.3218C38.911 10.3146 38.8215 10.311 38.7319 10.311C38.5099 10.311 38.3148 10.3433 38.1465 10.4077C37.9782 10.4686 37.8368 10.5581 37.7222 10.6763C37.6112 10.7909 37.5252 10.9305 37.4644 11.0952C37.4035 11.2599 37.3677 11.4443 37.3569 11.6484L37.0615 11.6699C37.0615 11.3047 37.0973 10.9663 37.1689 10.6548C37.2406 10.3433 37.348 10.0693 37.4912 9.83301C37.638 9.59668 37.8206 9.41227 38.0391 9.27979C38.2611 9.1473 38.5171 9.08105 38.8071 9.08105C38.8859 9.08105 38.9701 9.08822 39.0596 9.10254C39.1527 9.11686 39.2225 9.13298 39.269 9.15088ZM40.1934 12.1587V12.0352C40.1934 11.6162 40.2542 11.2277 40.376 10.8696C40.4977 10.508 40.6732 10.1947 40.9023 9.92969C41.1351 9.66113 41.418 9.45345 41.751 9.30664C42.0876 9.15625 42.4671 9.08105 42.8896 9.08105C43.3158 9.08105 43.6953 9.15625 44.0283 9.30664C44.3649 9.45345 44.6496 9.66113 44.8823 9.92969C45.1151 10.1947 45.2923 10.508 45.4141 10.8696C45.5358 11.2277 45.5967 11.6162 45.5967 12.0352V12.1587C45.5967 12.5776 45.5358 12.9661 45.4141 13.3242C45.2923 13.6823 45.1151 13.9956 44.8823 14.2642C44.6496 14.5291 44.3667 14.7368 44.0337 14.8872C43.7007 15.034 43.3229 15.1074 42.9004 15.1074C42.4743 15.1074 42.0929 15.034 41.7563 14.8872C41.4233 14.7368 41.1405 14.5291 40.9077 14.2642C40.675 13.9956 40.4977 13.6823 40.376 13.3242C40.2542 12.9661 40.1934 12.5776 40.1934 12.1587ZM41.4878 12.0352V12.1587C41.4878 12.4201 41.5146 12.6672 41.5684 12.8999C41.6221 13.1326 41.7062 13.3368 41.8208 13.5122C41.9354 13.6877 42.0822 13.8255 42.2612 13.9258C42.4403 14.026 42.6533 14.0762 42.9004 14.0762C43.1403 14.0762 43.348 14.026 43.5234 13.9258C43.7025 13.8255 43.8493 13.6877 43.9639 13.5122C44.0785 13.3368 44.1626 13.1326 44.2163 12.8999C44.2736 12.6672 44.3022 12.4201 44.3022 12.1587V12.0352C44.3022 11.7773 44.2736 11.5339 44.2163 11.3047C44.1626 11.0719 44.0767 10.866 43.9585 10.687C43.8439 10.508 43.6971 10.3683 43.5181 10.2681C43.3426 10.1642 43.1331 10.1123 42.8896 10.1123C42.6462 10.1123 42.4349 10.1642 42.2559 10.2681C42.0804 10.3683 41.9354 10.508 41.8208 10.687C41.7062 10.866 41.6221 11.0719 41.5684 11.3047C41.5146 11.5339 41.4878 11.7773 41.4878 12.0352ZM47.187 6.75H48.4814V13.7593L48.3579 15H47.187V6.75ZM52.2734 12.0405V12.1533C52.2734 12.583 52.2251 12.9787 52.1284 13.3403C52.0353 13.6984 51.8921 14.0099 51.6987 14.2749C51.509 14.5399 51.2726 14.7458 50.9897 14.8926C50.7104 15.0358 50.3864 15.1074 50.0176 15.1074C49.6559 15.1074 49.3408 15.0394 49.0723 14.9033C48.8037 14.7673 48.5781 14.5739 48.3955 14.3232C48.2165 14.0726 48.0715 13.7736 47.9604 13.4263C47.8494 13.0789 47.7707 12.6958 47.7241 12.2769V11.917C47.7707 11.4945 47.8494 11.1113 47.9604 10.7676C48.0715 10.4202 48.2165 10.1213 48.3955 9.87061C48.5781 9.61637 48.8019 9.42122 49.0669 9.28516C49.3354 9.14909 49.6488 9.08105 50.0068 9.08105C50.3792 9.08105 50.7069 9.15267 50.9897 9.2959C51.2762 9.43913 51.5143 9.64323 51.7041 9.9082C51.8939 10.1696 52.0353 10.4811 52.1284 10.8428C52.2251 11.2044 52.2734 11.6037 52.2734 12.0405ZM50.979 12.1533V12.0405C50.979 11.7791 50.9575 11.5339 50.9146 11.3047C50.8716 11.0719 50.8 10.8678 50.6997 10.6924C50.603 10.5169 50.4705 10.3791 50.3022 10.2788C50.1375 10.175 49.9316 10.123 49.6846 10.123C49.4554 10.123 49.2585 10.1624 49.0938 10.2412C48.929 10.32 48.7912 10.4274 48.6802 10.5635C48.5692 10.6995 48.4814 10.8571 48.417 11.0361C48.3561 11.2152 48.3149 11.4085 48.2935 11.6162V12.5884C48.3257 12.8569 48.3937 13.104 48.4976 13.3296C48.605 13.5516 48.7554 13.7306 48.9487 13.8667C49.1421 13.9992 49.391 14.0654 49.6953 14.0654C49.9352 14.0654 50.1375 14.0171 50.3022 13.9204C50.467 13.8237 50.5977 13.6895 50.6943 13.5176C50.7946 13.3421 50.8662 13.138 50.9092 12.9053C50.9557 12.6725 50.979 12.4219 50.979 12.1533ZM55.2549 6.75V15H53.9551V6.75H55.2549ZM59.7349 15.1074C59.3052 15.1074 58.9167 15.0376 58.5693 14.8979C58.2256 14.7547 57.932 14.556 57.6885 14.3018C57.4486 14.0475 57.2642 13.7485 57.1353 13.4048C57.0063 13.061 56.9419 12.6904 56.9419 12.293V12.0781C56.9419 11.6234 57.0081 11.2116 57.1406 10.8428C57.2731 10.474 57.4575 10.1589 57.6938 9.89746C57.9302 9.63249 58.2095 9.43018 58.5317 9.29053C58.854 9.15088 59.2031 9.08105 59.5791 9.08105C59.9945 9.08105 60.3579 9.15088 60.6694 9.29053C60.981 9.43018 61.2388 9.62712 61.4429 9.88135C61.6506 10.132 61.8045 10.431 61.9048 10.7783C62.0086 11.1257 62.0605 11.5088 62.0605 11.9277V12.481H57.5703V11.5518H60.7822V11.4497C60.7751 11.217 60.7285 10.9985 60.6426 10.7944C60.5602 10.5903 60.4331 10.4256 60.2612 10.3003C60.0894 10.175 59.8602 10.1123 59.5737 10.1123C59.3589 10.1123 59.1673 10.1589 58.999 10.252C58.8343 10.3415 58.6965 10.4722 58.5854 10.644C58.4744 10.8159 58.3885 11.0236 58.3276 11.2671C58.2703 11.507 58.2417 11.7773 58.2417 12.0781V12.293C58.2417 12.5472 58.2757 12.7835 58.3438 13.002C58.4154 13.2168 58.5192 13.4048 58.6553 13.5659C58.7913 13.7271 58.9561 13.8542 59.1494 13.9473C59.3428 14.0368 59.563 14.0815 59.8101 14.0815C60.1216 14.0815 60.3991 14.0189 60.6426 13.8936C60.8861 13.7682 61.0973 13.591 61.2764 13.3618L61.9585 14.0225C61.8332 14.2051 61.6702 14.3805 61.4697 14.5488C61.2692 14.7135 61.0239 14.8478 60.7339 14.9517C60.4474 15.0555 60.1144 15.1074 59.7349 15.1074ZM64.8647 10.3701V15H63.5703V9.18848H64.7896L64.8647 10.3701ZM64.6553 11.8794L64.2148 11.874C64.2148 11.473 64.265 11.1024 64.3652 10.7622C64.4655 10.422 64.6123 10.1266 64.8057 9.87598C64.999 9.62174 65.2389 9.4266 65.5254 9.29053C65.8154 9.15088 66.1502 9.08105 66.5298 9.08105C66.7948 9.08105 67.0365 9.12044 67.2549 9.19922C67.4769 9.27441 67.6685 9.39437 67.8296 9.55908C67.9943 9.7238 68.1196 9.93506 68.2056 10.1929C68.2951 10.4507 68.3398 10.7622 68.3398 11.1274V15H67.0454V11.2402C67.0454 10.9574 67.0024 10.7354 66.9165 10.5742C66.8341 10.4131 66.7142 10.2985 66.5566 10.2305C66.4027 10.1589 66.2183 10.123 66.0034 10.123C65.7599 10.123 65.5522 10.1696 65.3804 10.2627C65.2121 10.3558 65.0742 10.4829 64.9668 10.644C64.8594 10.8052 64.7806 10.9914 64.7305 11.2026C64.6803 11.4139 64.6553 11.6395 64.6553 11.8794ZM68.2593 11.5356L67.6523 11.6699C67.6523 11.319 67.7007 10.9878 67.7974 10.6763C67.8976 10.3612 68.0426 10.0854 68.2324 9.84912C68.4258 9.60921 68.6639 9.42122 68.9468 9.28516C69.2297 9.14909 69.5537 9.08105 69.9189 9.08105C70.2161 9.08105 70.4811 9.12223 70.7139 9.20459C70.9502 9.28337 71.1507 9.40869 71.3154 9.58057C71.4801 9.75244 71.6055 9.97624 71.6914 10.252C71.7773 10.5241 71.8203 10.8535 71.8203 11.2402V15H70.5205V11.2349C70.5205 10.9412 70.4775 10.7139 70.3916 10.5527C70.3092 10.3916 70.1911 10.2806 70.0371 10.2197C69.8831 10.1553 69.6987 10.123 69.4839 10.123C69.2834 10.123 69.1061 10.1606 68.9521 10.2358C68.8018 10.3075 68.6746 10.4095 68.5708 10.542C68.467 10.6709 68.3882 10.8195 68.3345 10.9878C68.2843 11.1561 68.2593 11.3387 68.2593 11.5356ZM76.9287 13.8345V11.063C76.9287 10.8553 76.8911 10.6763 76.8159 10.5259C76.7407 10.3755 76.6261 10.2591 76.4722 10.1768C76.3218 10.0944 76.132 10.0532 75.9028 10.0532C75.6916 10.0532 75.509 10.089 75.355 10.1606C75.201 10.2323 75.0811 10.3289 74.9951 10.4507C74.9092 10.5724 74.8662 10.7103 74.8662 10.8643H73.5771C73.5771 10.6351 73.6326 10.4131 73.7437 10.1982C73.8547 9.9834 74.0158 9.79183 74.2271 9.62354C74.4383 9.45524 74.6908 9.32275 74.9844 9.22607C75.278 9.12939 75.6074 9.08105 75.9727 9.08105C76.4095 9.08105 76.7962 9.15446 77.1328 9.30127C77.473 9.44808 77.7397 9.67008 77.9331 9.96729C78.13 10.2609 78.2285 10.6297 78.2285 11.0737V13.6572C78.2285 13.9222 78.2464 14.1603 78.2822 14.3716C78.3216 14.5793 78.3771 14.7601 78.4487 14.9141V15H77.1221C77.0612 14.8604 77.0129 14.6831 76.9771 14.4683C76.9448 14.2498 76.9287 14.0386 76.9287 13.8345ZM77.1167 11.4658L77.1274 12.2661H76.1982C75.9583 12.2661 75.7471 12.2894 75.5645 12.3359C75.3818 12.3789 75.2297 12.4434 75.1079 12.5293C74.9862 12.6152 74.8949 12.7191 74.834 12.8408C74.7731 12.9626 74.7427 13.1004 74.7427 13.2544C74.7427 13.4084 74.7785 13.5498 74.8501 13.6787C74.9217 13.804 75.0256 13.9025 75.1616 13.9741C75.3013 14.0457 75.4696 14.0815 75.6665 14.0815C75.9315 14.0815 76.1624 14.0278 76.3594 13.9204C76.5599 13.8094 76.7174 13.6751 76.832 13.5176C76.9466 13.3564 77.0075 13.2043 77.0146 13.061L77.4336 13.6357C77.3906 13.7826 77.3172 13.9401 77.2134 14.1084C77.1095 14.2767 76.9735 14.4378 76.8052 14.5918C76.6405 14.7422 76.4417 14.8657 76.209 14.9624C75.9798 15.0591 75.7148 15.1074 75.4141 15.1074C75.0345 15.1074 74.6961 15.0322 74.3989 14.8818C74.1017 14.7279 73.869 14.522 73.7007 14.2642C73.5324 14.0028 73.4482 13.7074 73.4482 13.3779C73.4482 13.07 73.5055 12.7979 73.6201 12.5615C73.7383 12.3216 73.9102 12.1211 74.1357 11.96C74.3649 11.7988 74.6442 11.6771 74.9736 11.5947C75.3031 11.5088 75.679 11.4658 76.1016 11.4658H77.1167Z" fill="black"/>
<g clip-path="url(#clip0_363_1009)">
<path d="M12.3333 12H17.6666M12.9999 8.00004H13.0066M16.9999 8.00004H17.0066M21.6666 10C21.6666 13.6819 18.6818 16.6667 14.9999 16.6667C11.318 16.6667 8.33325 13.6819 8.33325 10C8.33325 6.31814 11.318 3.33337 14.9999 3.33337C18.6818 3.33337 21.6666 6.31814 21.6666 10Z" stroke="#1E1E1E" stroke-width="1.6" stroke-linecap="round" stroke-linejoin="round"/>
</g>
<defs>
<clipPath id="clip0_363_1009">
<rect width="16" height="16" fill="white" transform="translate(7 2)"/>
</clipPath>
</defs>
</svg>
