<svg width="133" height="40" viewBox="0 0 133 40" fill="none" xmlns="http://www.w3.org/2000/svg">
<mask id="path-1-inside-1_319_1579" fill="white">
<path d="M0 8C0 3.58172 3.58172 0 8 0H125C129.418 0 133 3.58172 133 8V32C133 36.4183 129.418 40 125 40H8C3.58172 40 0 36.4183 0 32V8Z"/>
</mask>
<path d="M0 8C0 3.58172 3.58172 0 8 0H125C129.418 0 133 3.58172 133 8V32C133 36.4183 129.418 40 125 40H8C3.58172 40 0 36.4183 0 32V8Z" fill="#2C2C2C"/>
<path d="M8 1H125V-1H8V1ZM132 8V32H134V8H132ZM125 39H8V41H125V39ZM1 32V8H-1V32H1ZM8 39C4.13401 39 1 35.866 1 32H-1C-1 36.9706 3.02944 41 8 41V39ZM132 32C132 35.866 128.866 39 125 39V41C129.971 41 134 36.9706 134 32H132ZM125 1C128.866 1 132 4.13401 132 8H134C134 3.02944 129.971 -1 125 -1V1ZM8 -1C3.02944 -1 -1 3.02944 -1 8H1C1 4.13401 4.13401 1 8 1V-1Z" fill="#2C2C2C" mask="url(#path-1-inside-1_319_1579)"/>
<path d="M19.7727 17.2727C19.7045 16.697 19.428 16.25 18.9432 15.9318C18.4583 15.6136 17.8636 15.4545 17.1591 15.4545C16.6439 15.4545 16.1932 15.5379 15.8068 15.7045C15.4242 15.8712 15.125 16.1004 14.9091 16.392C14.697 16.6837 14.5909 17.0152 14.5909 17.3864C14.5909 17.697 14.6648 17.964 14.8125 18.1875C14.964 18.4072 15.1572 18.5909 15.392 18.7386C15.6269 18.8826 15.8731 19.0019 16.1307 19.0966C16.3883 19.1875 16.625 19.2614 16.8409 19.3182L18.0227 19.6364C18.3258 19.7159 18.6629 19.8258 19.0341 19.9659C19.4091 20.1061 19.767 20.2973 20.108 20.5398C20.4527 20.7784 20.7367 21.0852 20.9602 21.4602C21.1837 21.8352 21.2955 22.2955 21.2955 22.8409C21.2955 23.4697 21.1307 24.0379 20.8011 24.5455C20.4754 25.053 19.9981 25.4564 19.3693 25.7557C18.7443 26.0549 17.9848 26.2045 17.0909 26.2045C16.2576 26.2045 15.536 26.0701 14.9261 25.8011C14.3201 25.5322 13.8428 25.1572 13.4943 24.6761C13.1496 24.1951 12.9545 23.6364 12.9091 23H14.3636C14.4015 23.4394 14.5492 23.803 14.8068 24.0909C15.0682 24.375 15.3977 24.5871 15.7955 24.7273C16.197 24.8636 16.6288 24.9318 17.0909 24.9318C17.6288 24.9318 18.1117 24.8447 18.5398 24.6705C18.9678 24.4924 19.3068 24.2462 19.5568 23.9318C19.8068 23.6136 19.9318 23.2424 19.9318 22.8182C19.9318 22.4318 19.8239 22.1174 19.608 21.875C19.392 21.6326 19.108 21.4356 18.7557 21.2841C18.4034 21.1326 18.0227 21 17.6136 20.8864L16.1818 20.4773C15.2727 20.2159 14.553 19.8428 14.0227 19.358C13.4924 18.8731 13.2273 18.2386 13.2273 17.4545C13.2273 16.803 13.4034 16.2348 13.7557 15.75C14.1117 15.2614 14.589 14.8826 15.1875 14.6136C15.7898 14.3409 16.4621 14.2045 17.2045 14.2045C17.9545 14.2045 18.6212 14.339 19.2045 14.608C19.7879 14.8731 20.25 15.2367 20.5909 15.6989C20.9356 16.161 21.1174 16.6856 21.1364 17.2727H19.7727ZM26.9759 26.1818C26.188 26.1818 25.4967 25.9943 24.902 25.6193C24.3111 25.2443 23.849 24.7197 23.5156 24.0455C23.1861 23.3712 23.0213 22.5833 23.0213 21.6818C23.0213 20.7727 23.1861 19.9792 23.5156 19.3011C23.849 18.6231 24.3111 18.0966 24.902 17.7216C25.4967 17.3466 26.188 17.1591 26.9759 17.1591C27.7637 17.1591 28.4531 17.3466 29.044 17.7216C29.6387 18.0966 30.1009 18.6231 30.4304 19.3011C30.7637 19.9792 30.9304 20.7727 30.9304 21.6818C30.9304 22.5833 30.7637 23.3712 30.4304 24.0455C30.1009 24.7197 29.6387 25.2443 29.044 25.6193C28.4531 25.9943 27.7637 26.1818 26.9759 26.1818ZM26.9759 24.9773C27.5743 24.9773 28.0668 24.8239 28.4531 24.517C28.8395 24.2102 29.1255 23.8068 29.3111 23.3068C29.4967 22.8068 29.5895 22.2652 29.5895 21.6818C29.5895 21.0985 29.4967 20.5549 29.3111 20.0511C29.1255 19.5473 28.8395 19.1402 28.4531 18.8295C28.0668 18.5189 27.5743 18.3636 26.9759 18.3636C26.3774 18.3636 25.8849 18.5189 25.4986 18.8295C25.1122 19.1402 24.8262 19.5473 24.6406 20.0511C24.455 20.5549 24.3622 21.0985 24.3622 21.6818C24.3622 22.2652 24.455 22.8068 24.6406 23.3068C24.8262 23.8068 25.1122 24.2102 25.4986 24.517C25.8849 24.8239 26.3774 24.9773 26.9759 24.9773ZM34.3182 14.3636V26H32.9773V14.3636H34.3182ZM36.7741 26V17.2727H38.1151V26H36.7741ZM37.456 15.8182C37.1946 15.8182 36.9692 15.7292 36.7798 15.5511C36.5942 15.3731 36.5014 15.1591 36.5014 14.9091C36.5014 14.6591 36.5942 14.4451 36.7798 14.267C36.9692 14.089 37.1946 14 37.456 14C37.7173 14 37.9408 14.089 38.1264 14.267C38.3158 14.4451 38.4105 14.6591 38.4105 14.9091C38.4105 15.1591 38.3158 15.3731 38.1264 15.5511C37.9408 15.7292 37.7173 15.8182 37.456 15.8182ZM44.1165 26.1818C43.2983 26.1818 42.5938 25.9886 42.0028 25.6023C41.4119 25.2159 40.9574 24.6837 40.6392 24.0057C40.321 23.3277 40.1619 22.553 40.1619 21.6818C40.1619 20.7955 40.3248 20.0133 40.6506 19.3352C40.9801 18.6534 41.4384 18.1212 42.0256 17.7386C42.6165 17.3523 43.3059 17.1591 44.0938 17.1591C44.7074 17.1591 45.2604 17.2727 45.7528 17.5C46.2453 17.7273 46.6487 18.0455 46.9631 18.4545C47.2775 18.8636 47.4725 19.3409 47.5483 19.8864H46.2074C46.1051 19.4886 45.8778 19.1364 45.5256 18.8295C45.1771 18.5189 44.7074 18.3636 44.1165 18.3636C43.5938 18.3636 43.1354 18.5 42.7415 18.7727C42.3513 19.0417 42.0464 19.4223 41.8267 19.9148C41.6108 20.4034 41.5028 20.9773 41.5028 21.6364C41.5028 22.3106 41.6089 22.8977 41.821 23.3977C42.0369 23.8977 42.34 24.286 42.7301 24.5625C43.1241 24.839 43.5862 24.9773 44.1165 24.9773C44.465 24.9773 44.7812 24.9167 45.0653 24.7955C45.3494 24.6742 45.59 24.5 45.7869 24.2727C45.9839 24.0455 46.1241 23.7727 46.2074 23.4545H47.5483C47.4725 23.9697 47.285 24.4337 46.9858 24.8466C46.6903 25.2557 46.2983 25.5814 45.8097 25.8239C45.3248 26.0625 44.7604 26.1818 44.1165 26.1818ZM49.5085 26V17.2727H50.8494V26H49.5085ZM50.1903 15.8182C49.929 15.8182 49.7036 15.7292 49.5142 15.5511C49.3286 15.3731 49.2358 15.1591 49.2358 14.9091C49.2358 14.6591 49.3286 14.4451 49.5142 14.267C49.7036 14.089 49.929 14 50.1903 14C50.4517 14 50.6752 14.089 50.8608 14.267C51.0502 14.4451 51.1449 14.6591 51.1449 14.9091C51.1449 15.1591 51.0502 15.3731 50.8608 15.5511C50.6752 15.7292 50.4517 15.8182 50.1903 15.8182ZM57.1009 17.2727V18.4091H52.5781V17.2727H57.1009ZM53.8963 15.1818H55.2372V23.5C55.2372 23.8788 55.2921 24.1629 55.402 24.3523C55.5156 24.5379 55.6596 24.6629 55.8338 24.7273C56.0118 24.7879 56.1993 24.8182 56.3963 24.8182C56.544 24.8182 56.6652 24.8106 56.7599 24.7955C56.8546 24.7765 56.9304 24.7614 56.9872 24.75L57.2599 25.9545C57.169 25.9886 57.0421 26.0227 56.8793 26.0568C56.7164 26.0947 56.5099 26.1136 56.2599 26.1136C55.8812 26.1136 55.5099 26.0322 55.1463 25.8693C54.7865 25.7064 54.4872 25.4583 54.2486 25.125C54.0137 24.7917 53.8963 24.3712 53.8963 23.8636V15.1818ZM61.6861 26.2045C61.133 26.2045 60.6312 26.1004 60.1804 25.892C59.7296 25.6799 59.3717 25.375 59.1065 24.9773C58.8414 24.5758 58.7088 24.0909 58.7088 23.5227C58.7088 23.0227 58.8073 22.6174 59.0043 22.3068C59.2012 21.9924 59.4645 21.7462 59.794 21.5682C60.1236 21.3902 60.4872 21.2576 60.8849 21.1705C61.2865 21.0795 61.6899 21.0076 62.0952 20.9545C62.6255 20.8864 63.0554 20.8352 63.3849 20.8011C63.7183 20.7633 63.9607 20.7008 64.1122 20.6136C64.2675 20.5265 64.3452 20.375 64.3452 20.1591V20.1136C64.3452 19.553 64.1918 19.1174 63.8849 18.8068C63.5819 18.4962 63.1217 18.3409 62.5043 18.3409C61.8641 18.3409 61.3622 18.4811 60.9986 18.7614C60.6349 19.0417 60.3793 19.3409 60.2315 19.6591L58.9588 19.2045C59.1861 18.6742 59.4891 18.2614 59.8679 17.9659C60.2505 17.6667 60.6671 17.4583 61.1179 17.3409C61.5724 17.2197 62.0194 17.1591 62.4588 17.1591C62.7391 17.1591 63.0611 17.1932 63.4247 17.2614C63.7921 17.3258 64.1463 17.4602 64.4872 17.6648C64.8319 17.8693 65.1179 18.178 65.3452 18.5909C65.5724 19.0038 65.6861 19.5568 65.6861 20.25V26H64.3452V24.8182H64.277C64.1861 25.0076 64.0346 25.2102 63.8224 25.4261C63.6103 25.642 63.3281 25.8258 62.9759 25.9773C62.6236 26.1288 62.1937 26.2045 61.6861 26.2045ZM61.8906 25C62.4209 25 62.8679 24.8958 63.2315 24.6875C63.599 24.4792 63.8755 24.2102 64.0611 23.8807C64.2505 23.5511 64.3452 23.2045 64.3452 22.8409V21.6136C64.2884 21.6818 64.1634 21.7443 63.9702 21.8011C63.7808 21.8542 63.5611 21.9015 63.3111 21.9432C63.0649 21.9811 62.8243 22.0152 62.5895 22.0455C62.3584 22.072 62.1709 22.0947 62.027 22.1136C61.6785 22.1591 61.3527 22.233 61.0497 22.3352C60.7505 22.4337 60.508 22.5833 60.3224 22.7841C60.1406 22.9811 60.0497 23.25 60.0497 23.5909C60.0497 24.0568 60.2221 24.4091 60.5668 24.6477C60.9152 24.8826 61.3565 25 61.8906 25ZM68.1335 26V17.2727H69.429V18.5909H69.5199C69.679 18.1591 69.9669 17.8087 70.3835 17.5398C70.8002 17.2708 71.2699 17.1364 71.7926 17.1364C71.8911 17.1364 72.0142 17.1383 72.1619 17.142C72.3097 17.1458 72.4214 17.1515 72.4972 17.1591V18.5227C72.4517 18.5114 72.3475 18.4943 72.1847 18.4716C72.0256 18.4451 71.857 18.4318 71.679 18.4318C71.2547 18.4318 70.8759 18.5208 70.5426 18.6989C70.2131 18.8731 69.9517 19.1155 69.7585 19.4261C69.5691 19.733 69.4744 20.0833 69.4744 20.4773V26H68.1335ZM78.7685 26V14.3636H82.7003C83.6132 14.3636 84.3594 14.5284 84.9389 14.858C85.5223 15.1837 85.9541 15.625 86.2344 16.1818C86.5147 16.7386 86.6548 17.3598 86.6548 18.0455C86.6548 18.7311 86.5147 19.3542 86.2344 19.9148C85.9579 20.4754 85.5298 20.9223 84.9503 21.2557C84.3707 21.5852 83.6283 21.75 82.723 21.75H79.9048V20.5H82.6776C83.3026 20.5 83.8045 20.392 84.1832 20.1761C84.562 19.9602 84.8366 19.6686 85.0071 19.3011C85.1813 18.9299 85.2685 18.5114 85.2685 18.0455C85.2685 17.5795 85.1813 17.1629 85.0071 16.7955C84.8366 16.428 84.5601 16.1402 84.1776 15.9318C83.795 15.7197 83.2874 15.6136 82.6548 15.6136H80.1776V26H78.7685ZM88.2145 26H86.7372L91.0099 14.3636H92.4645L96.7372 26H95.2599L91.7827 16.2045H91.6918L88.2145 26ZM88.7599 21.4545H94.7145V22.7045H88.7599V21.4545ZM98.5497 26V14.3636H105.527V15.6136H99.9588V19.5455H105.004V20.7955H99.9588V26H98.5497ZM107.94 26V14.3636H114.918V15.6136H109.349V19.5455H114.395V20.7955H109.349V26H107.94ZM118.74 14.3636V26H117.331V14.3636H118.74Z" fill="#F5F5F5"/>
</svg>
