<svg width="112" height="24" viewBox="0 0 112 24" fill="none" xmlns="http://www.w3.org/2000/svg">
<path d="M0 12C0 5.37258 5.37258 0 12 0H95C101.627 0 107 5.37258 107 12C107 18.6274 101.627 24 95 24H12C5.37258 24 0 18.6274 0 12Z" fill="#EFB64C"/>
<g clip-path="url(#clip0_416_1459)">
<path d="M34.9386 18.8V17.2C34.9386 16.3513 34.5931 15.5374 33.978 14.9373C33.3629 14.3372 32.5287 14 31.6589 14H25.0995C24.2297 14 23.3955 14.3372 22.7804 14.9373C22.1654 15.5374 21.8198 16.3513 21.8198 17.2V18.8M39.8581 18.8V17.2C39.8576 16.491 39.6157 15.8022 39.1705 15.2419C38.7253 14.6815 38.102 14.2813 37.3984 14.104M34.1187 4.50402C34.8241 4.68027 35.4494 5.08059 35.896 5.64187C36.3425 6.20316 36.5849 6.89349 36.5849 7.60402C36.5849 8.31456 36.3425 9.00489 35.896 9.56618C35.4494 10.1275 34.8241 10.5278 34.1187 10.704M31.6589 7.60002C31.6589 9.36734 30.1905 10.8 28.3792 10.8C26.5679 10.8 25.0995 9.36734 25.0995 7.60002C25.0995 5.83271 26.5679 4.40002 28.3792 4.40002C30.1905 4.40002 31.6589 5.83271 31.6589 7.60002Z" stroke="#1E1E1E" stroke-width="1.6" stroke-linecap="round" stroke-linejoin="round"/>
</g>
<path d="M54.7651 14.0835H52.7295V13.0146H54.7651C55.1196 13.0146 55.4061 12.9574 55.6245 12.8428C55.8429 12.7282 56.0023 12.5706 56.1025 12.3701C56.2064 12.166 56.2583 11.9333 56.2583 11.6719C56.2583 11.4248 56.2064 11.1938 56.1025 10.979C56.0023 10.7606 55.8429 10.5851 55.6245 10.4526C55.4061 10.3201 55.1196 10.2539 54.7651 10.2539H53.1431V17H51.7949V9.17969H54.7651C55.3703 9.17969 55.8841 9.28711 56.3066 9.50195C56.7327 9.71322 57.0568 10.0068 57.2788 10.3828C57.5008 10.7552 57.6118 11.1813 57.6118 11.6611C57.6118 12.166 57.5008 12.5993 57.2788 12.9609C57.0568 13.3226 56.7327 13.6001 56.3066 13.7935C55.8841 13.9868 55.3703 14.0835 54.7651 14.0835ZM61.5493 10.2217L59.2129 17H57.8003L60.7437 9.17969H61.646L61.5493 10.2217ZM63.5044 17L61.1626 10.2217L61.0605 9.17969H61.9683L64.9224 17H63.5044ZM63.3916 14.0996V15.1685H59.1377V14.0996H63.3916ZM67.646 9.17969V17H66.2979V9.17969H67.646ZM70.8364 12.6011V13.6699H67.3022V12.6011H70.8364ZM71.2822 9.17969V10.2539H67.3022V9.17969H71.2822ZM74.2959 9.17969V17H72.9478V9.17969H74.2959Z" fill="black"/>
<defs>
<clipPath id="clip0_416_1459">
<rect width="19.6782" height="19.2" fill="white" transform="translate(21 2)"/>
</clipPath>
</defs>
</svg>
